<svg version="1.1" id="Layer_1" xmlns="http://www.w3.org/2000/svg" xmlns:xlink="http://www.w3.org/1999/xlink" x="0px" y="0px"
	 width="100%" viewBox="0 0 1456 322" enable-background="new 0 0 1456 322" xml:space="preserve">
<path fill="#FFFFFF" opacity="1.000000" stroke="none" 
	d="
M1050.000000,323.000000 
	C700.000000,323.000000 350.500031,323.000000 1.000047,323.000000 
	C1.000031,215.666687 1.000031,108.333389 1.000016,1.000061 
	C486.333282,1.000041 971.666565,1.000041 1457.000000,1.000021 
	C1457.000000,108.333275 1457.000000,215.666550 1457.000000,322.999908 
	C1321.500000,323.000000 1186.000000,323.000000 1050.000000,323.000000 
M92.024559,95.041740 
	C92.024559,95.041740 92.089905,95.004799 91.294777,94.959282 
	C70.654076,102.204132 53.044830,113.473083 42.576698,133.407639 
	C37.522717,143.031982 39.083294,153.320618 46.617626,159.366776 
	C50.997025,162.881165 56.801563,164.619629 61.689270,167.721771 
	C61.470509,168.512466 61.251751,169.303146 61.060978,170.937698 
	C60.728642,179.729187 59.781635,188.550766 60.209869,197.305038 
	C60.832478,210.032913 63.516022,222.424316 71.627991,232.802536 
	C79.834381,243.301514 91.579041,244.949493 102.503716,237.410019 
	C104.800537,235.824921 106.932617,234.001114 109.835526,232.730255 
	C110.370155,232.813553 110.904793,232.896866 111.871582,233.488449 
	C112.260002,233.676682 112.648422,233.864914 113.047104,234.004120 
	C113.047104,234.004120 112.998726,233.995987 113.204803,234.638809 
	C127.948906,246.224518 144.067154,254.757355 163.124344,256.252228 
	C179.486771,257.535767 190.529205,248.369797 190.340271,233.826462 
	C190.289047,229.881500 189.445602,225.946854 189.324753,222.024170 
	C189.681000,222.011917 190.037231,221.999680 191.133377,221.534912 
	C197.830994,218.244690 204.816467,215.427383 211.164688,211.563156 
	C223.365601,204.136307 234.249496,195.158478 240.196899,181.602127 
	C245.525101,169.457199 241.141846,157.571976 229.089706,151.978165 
	C224.915298,150.040665 220.330093,148.988205 216.227692,147.629288 
	C219.677887,120.680275 200.782791,106.387352 184.108154,90.983131 
	C190.620255,83.164436 196.746475,82.785080 203.568741,89.602058 
	C204.620819,90.653320 205.611954,91.792343 206.474167,93.002701 
	C214.069992,103.665749 216.408203,116.078415 218.121948,128.653870 
	C218.934662,134.617645 219.372314,140.632523 219.979874,146.624252 
	C220.448486,146.611679 220.917084,146.599106 221.385681,146.586517 
	C221.740997,138.806412 222.556534,131.014084 222.350433,123.248871 
	C221.984680,109.467529 219.647903,96.028122 211.493958,84.413445 
	C203.125381,72.493019 190.055511,70.570587 178.546341,79.482948 
	C175.291702,82.003250 172.499481,85.120705 169.899445,87.581657 
	C148.171036,71.044525 126.335335,80.358101 104.684669,87.070358 
	C101.324051,76.045830 104.957603,70.306999 115.797630,68.822685 
	C130.268967,66.841148 143.355957,71.662125 156.312424,77.061058 
	C160.757477,78.913315 165.110519,80.986374 169.505585,82.958565 
	C154.440811,69.831429 137.596771,60.511074 117.373070,59.696281 
	C98.784271,58.947361 88.630920,71.761749 92.638145,89.900757 
	C92.851433,90.866219 92.925850,91.862358 92.982651,93.517410 
	C92.959946,93.742325 92.937241,93.967247 92.479462,94.351608 
	C92.166458,94.489510 91.991447,94.728470 92.024559,95.041740 
M662.025696,158.445282 
	C661.431824,157.442993 660.617920,156.509552 660.279358,155.427414 
	C657.825989,147.584930 652.461731,145.349655 644.671448,146.437775 
	C641.729309,146.848709 639.821411,147.501678 638.381775,150.176056 
	C634.676514,157.059296 630.754700,163.826630 626.877747,170.616470 
	C625.360901,173.272858 623.732605,175.865540 621.737976,179.180420 
	C620.914307,177.013885 620.355713,175.844543 620.019287,174.614426 
	C615.241943,157.149734 610.537231,139.664948 605.663757,122.227257 
	C605.251770,120.753189 603.851379,118.545441 602.753235,118.448036 
	C598.021118,118.028297 593.230408,118.268608 588.394531,118.268608 
	C588.394531,119.299759 588.285461,119.814438 588.410095,120.264412 
	C595.904541,147.328568 603.399719,174.392578 611.003418,201.426086 
	C611.281311,202.414001 612.528748,203.633392 613.513855,203.839737 
	C622.722778,205.768478 626.368530,204.023087 630.952637,195.811676 
	C631.520691,194.793961 632.071960,193.766769 632.649048,192.754257 
	C637.562683,184.133743 642.480591,175.515656 647.854736,166.094696 
	C653.273560,175.591278 658.301208,184.325745 663.254578,193.102158 
	C669.798645,204.697113 669.773621,204.711639 683.184631,203.789261 
	C683.343567,203.778336 683.497620,203.694489 684.227234,203.462006 
	C692.033875,175.413528 699.928650,147.048523 707.943298,118.252609 
	C702.992371,118.252609 698.828735,118.424583 694.687805,118.191864 
	C691.948303,118.037903 690.861389,119.232445 690.211792,121.660934 
	C686.819580,134.342743 683.367371,147.008835 679.863647,159.660339 
	C678.120117,165.956146 676.221680,172.209061 674.067139,179.600479 
	C669.764221,172.037659 666.078369,165.559494 662.025696,158.445282 
M391.971344,137.472427 
	C393.615784,138.773315 395.260223,140.074188 397.046295,141.487106 
	C401.005737,137.968048 404.680847,134.701645 409.342102,130.558807 
	C403.477417,126.665520 398.655914,122.395065 393.041077,119.936539 
	C375.722656,112.353485 359.390228,114.777817 345.263214,127.438446 
	C331.780273,139.521866 327.297211,155.038864 332.252747,172.285278 
	C340.163452,199.816177 367.196869,212.320389 393.565857,200.579742 
	C399.970428,197.728149 405.696198,192.270996 410.236115,186.774597 
	C412.463104,184.078430 411.310944,178.552826 411.588013,174.301208 
	C411.717743,172.310120 411.610199,170.303589 411.610199,168.304047 
	C411.610199,161.209061 411.610199,154.114075 411.610199,146.979813 
	C398.170288,146.979813 385.447021,146.979813 372.761841,146.979813 
	C372.761841,152.295349 372.761841,157.205322 372.761841,162.602524 
	C376.759003,162.602524 380.388947,162.602524 384.018921,162.602524 
	C387.790039,162.602524 391.561127,162.602524 395.825531,162.602524 
	C395.825531,166.413925 395.370483,169.623978 395.914673,172.654602 
	C397.301239,180.376602 392.689392,183.975800 386.766113,186.599365 
	C384.073669,187.791901 381.081726,188.630035 378.155640,188.918304 
	C364.808197,190.233261 353.512848,183.465073 348.571930,171.482117 
	C343.794006,159.894424 347.123901,146.316940 356.681549,138.415512 
	C366.634216,130.187515 380.263885,129.617767 391.971344,137.472427 
M1330.005005,188.205811 
	C1330.611206,187.044769 1331.732910,185.888931 1331.744751,184.721909 
	C1331.871704,172.138397 1331.823853,159.553116 1331.823853,147.005768 
	C1318.517212,147.005768 1305.821533,147.005768 1293.166992,147.005768 
	C1293.166992,152.335953 1293.166992,157.242340 1293.166992,162.598862 
	C1297.134399,162.598862 1300.768677,162.598862 1304.402832,162.598862 
	C1308.161255,162.598862 1311.919678,162.598862 1316.056030,162.598862 
	C1316.056030,168.287964 1316.181274,173.260849 1315.970581,178.219498 
	C1315.915894,179.505112 1315.098389,181.050247 1314.140747,181.960022 
	C1305.223145,190.432770 1291.379272,191.504120 1279.906372,184.747299 
	C1270.138306,178.994492 1264.616943,165.269058 1267.501709,153.911987 
	C1270.694092,141.344498 1281.185547,132.577377 1293.332764,131.881973 
	C1302.781982,131.341003 1310.452515,134.950562 1317.259888,141.614777 
	C1321.297485,138.014954 1325.065918,134.655151 1329.550171,130.657104 
	C1324.679077,127.247231 1320.588623,123.875526 1316.048706,121.294266 
	C1297.094849,110.517830 1271.932251,115.742317 1258.333252,135.470413 
	C1245.562134,153.997482 1249.560547,180.805099 1267.099487,194.915390 
	C1286.680542,210.668579 1312.374390,208.150696 1330.005005,188.205811 
M511.972504,194.517166 
	C530.537231,210.534119 558.026611,207.956787 574.690796,188.636887 
	C589.580444,171.374268 587.629761,142.603592 570.723999,127.677910 
	C550.702637,110.001556 523.306274,112.886459 508.015625,130.013138 
	C490.415710,149.726364 492.290741,177.829742 511.972504,194.517166 
M1043.779541,190.713226 
	C1049.188721,194.465149 1054.140137,199.345078 1060.091919,201.759445 
	C1078.648804,209.287155 1098.273560,203.636597 1111.254028,188.054153 
	C1122.851318,174.131882 1123.967041,153.292145 1114.002441,136.716629 
	C1099.399048,112.424652 1063.243896,108.637779 1044.314209,129.402847 
	C1027.771729,147.549240 1028.173096,173.390442 1043.779541,190.713226 
M987.410278,118.247353 
	C979.154724,118.247353 970.899170,118.247353 962.628845,118.247353 
	C962.628845,147.209625 962.628845,175.414597 962.628845,203.544159 
	C967.910217,203.544159 972.803223,203.544159 978.139038,203.544159 
	C978.139038,189.561646 978.139038,175.975693 978.139038,162.550949 
	C982.603271,161.255936 985.251099,162.508850 987.719360,166.083618 
	C995.843445,177.849747 1004.345825,189.355484 1012.765015,200.915970 
	C1013.600098,202.062653 1014.819885,203.690979 1015.929810,203.747543 
	C1021.587585,204.035843 1027.267944,203.880600 1033.887329,203.880600 
	C1022.948975,188.717896 1012.766235,174.602600 1002.435852,160.282562 
	C1003.884216,159.157837 1005.056213,158.271973 1006.202454,157.353958 
	C1016.437317,149.156235 1017.389587,134.628082 1008.414490,125.172989 
	C1002.898499,119.361923 995.963623,117.927757 987.410278,118.247353 
M464.071503,183.446106 
	C468.297150,189.219574 472.493256,195.015076 476.773132,200.748032 
	C477.635773,201.903534 478.772247,203.653458 479.857025,203.710480 
	C485.530212,204.008743 491.227417,203.849762 497.882935,203.849762 
	C486.992218,188.735413 476.818054,174.615494 466.501129,160.297424 
	C467.545776,159.427811 468.266144,158.773071 469.041351,158.191360 
	C476.950592,152.256317 480.197876,143.545532 477.855316,134.505005 
	C475.673340,126.084038 468.222015,119.513893 458.792877,118.577011 
	C452.687744,117.970421 446.487366,118.302528 440.329376,118.254372 
	C435.743164,118.218498 431.156494,118.247292 426.685089,118.247292 
	C426.685089,147.277039 426.685089,175.479568 426.685089,203.671753 
	C431.892975,203.671753 436.661896,203.671753 442.064270,203.671753 
	C442.064270,189.698334 442.064270,175.984222 442.064270,162.611404 
	C447.148956,160.886597 449.713867,162.998734 452.061157,166.618652 
	C455.676849,172.194748 459.779358,177.455154 464.071503,183.446106 
M787.059814,159.500000 
	C787.059814,174.244034 787.059814,188.988083 787.059814,203.651337 
	C792.844666,203.651337 797.783020,203.651337 803.250854,203.651337 
	C803.250854,189.955933 803.250854,176.539276 803.250854,163.004959 
	C814.996094,163.004959 826.201721,163.004959 837.970337,163.004959 
	C837.970337,176.796631 837.970337,190.193695 837.970337,203.666672 
	C843.461609,203.666672 848.380676,203.666672 853.535400,203.666672 
	C853.535400,175.175003 853.535400,146.958542 853.535400,118.682419 
	C848.181763,118.682419 843.152588,118.682419 837.611389,118.682419 
	C837.611389,128.191757 837.611389,137.277328 837.611389,146.405792 
	C825.874207,146.405792 814.669861,146.405792 803.003906,146.405792 
	C803.003906,136.893341 803.003906,127.801186 803.003906,118.649651 
	C797.471069,118.649651 792.414551,118.649651 787.059814,118.649651 
	C787.059814,132.195618 787.059814,145.347809 787.059814,159.500000 
M913.934631,201.203827 
	C913.934631,188.293182 913.934631,175.382523 913.934631,162.008224 
	C919.885681,162.008224 925.041443,162.246933 930.167664,161.958862 
	C941.075684,161.345840 949.664246,152.575775 950.434753,141.595306 
	C951.169617,131.123840 943.721191,120.272865 933.194763,119.242195 
	C921.715637,118.118240 910.041443,118.986839 898.291138,118.986839 
	C898.291138,147.071884 898.291138,175.296066 898.291138,203.927261 
	C902.879456,203.927261 907.181274,204.020706 911.472229,203.846481 
	C912.305725,203.812622 913.096924,202.735947 913.934631,201.203827 
M1371.551270,172.520935 
	C1371.551270,182.910004 1371.551270,193.299072 1371.551270,203.502441 
	C1377.532227,203.502441 1382.584473,203.502441 1387.858643,203.502441 
	C1387.858643,195.246323 1388.555420,187.354996 1387.701904,179.635025 
	C1386.277466,166.749512 1390.030396,156.230621 1398.369751,146.390045 
	C1405.591675,137.867859 1411.476074,128.212204 1418.524902,118.247337 
	C1413.176514,118.247337 1408.876221,118.549583 1404.639282,118.161873 
	C1400.447266,117.778282 1397.963989,119.379814 1395.686890,122.803146 
	C1390.748169,130.227844 1385.376465,137.364365 1379.743164,145.231384 
	C1373.798950,136.895477 1368.377563,129.178116 1362.798828,121.576271 
	C1361.807495,120.225563 1360.217285,118.506050 1358.807617,118.413055 
	C1353.263306,118.047325 1347.680664,118.263260 1341.384277,118.263260 
	C1342.411743,120.068321 1342.881958,121.083115 1343.517212,121.981171 
	C1350.910034,132.432434 1358.061646,143.070206 1365.844849,153.223404 
	C1370.130615,158.814194 1372.600464,164.503677 1371.551270,172.520935 
M721.739014,118.255768 
	C720.296692,118.358932 718.854309,118.462097 717.361084,118.568909 
	C717.361084,123.902428 717.361084,128.815536 717.361084,134.354614 
	C724.360168,134.354614 731.079285,134.354614 738.247437,134.354614 
	C738.247437,157.876984 738.247437,180.772522 738.247437,203.679810 
	C743.667480,203.679810 748.594604,203.679810 754.181274,203.679810 
	C754.181274,180.417114 754.181274,157.405197 754.181274,133.979736 
	C761.432373,133.979736 768.022888,133.979736 774.756592,133.979736 
	C774.756592,128.635437 774.756592,123.722626 774.756592,118.255661 
	C757.236450,118.255661 739.963928,118.255661 721.739014,118.255768 
M1165.985718,150.957092 
	C1169.765625,170.264435 1161.630493,188.469955 1145.412964,197.374420 
	C1142.607666,198.914658 1137.084595,198.670349 1138.159790,203.063843 
	C1138.658081,205.099899 1143.981323,206.592041 1147.321289,207.189713 
	C1165.515869,210.445374 1185.274048,201.445160 1194.569580,186.037888 
	C1204.869873,168.965530 1204.329834,147.907974 1193.206177,132.870041 
	C1181.093384,116.494965 1161.892578,109.616386 1142.522705,114.905121 
	C1140.733398,115.393654 1139.259155,117.035393 1137.638550,118.141701 
	C1138.853149,119.359444 1139.849854,121.077217 1141.316528,121.716522 
	C1154.079468,127.279617 1162.051514,136.868515 1165.985718,150.957092 
M1235.940186,125.598251 
	C1235.940186,123.316841 1235.940186,121.035431 1235.940186,118.619919 
	C1230.339111,118.619919 1225.288086,118.619919 1220.292236,118.619919 
	C1220.292236,147.205109 1220.292236,175.422241 1220.292236,203.661804 
	C1225.593384,203.661804 1230.515991,203.661804 1235.940186,203.661804 
	C1235.940186,177.780869 1235.940186,152.176117 1235.940186,125.598251 
z"/>
<path fill="#477099" opacity="1.000000" stroke="none" 
	d="
M61.964825,167.157227 
	C56.801563,164.619629 50.997025,162.881165 46.617626,159.366776 
	C39.083294,153.320618 37.522717,143.031982 42.576698,133.407639 
	C53.044830,113.473083 70.654076,102.204132 91.423248,95.189873 
	C81.972992,103.107918 72.085983,110.448837 62.921219,118.601639 
	C56.547340,124.271729 51.938263,131.540192 50.142307,140.149811 
	C48.499821,148.023712 54.105000,154.240845 62.291782,153.571655 
	C62.584457,151.829071 62.823574,150.023590 63.196041,148.246063 
	C67.535530,127.536819 72.097054,106.958786 95.210579,97.712029 
	C94.494125,96.086624 93.779518,94.465416 93.064911,92.844215 
	C92.925850,91.862358 92.851433,90.866219 92.638145,89.900757 
	C88.630920,71.761749 98.784271,58.947361 117.373070,59.696281 
	C137.596771,60.511074 154.440811,69.831429 169.505585,82.958565 
	C165.110519,80.986374 160.757477,78.913315 156.312424,77.061058 
	C143.355957,71.662125 130.268967,66.841148 115.797630,68.822685 
	C104.957603,70.306999 101.324051,76.045830 104.684669,87.070358 
	C126.335335,80.358101 148.171036,71.044525 169.899445,87.581657 
	C172.499481,85.120705 175.291702,82.003250 178.546341,79.482948 
	C190.055511,70.570587 203.125381,72.493019 211.493958,84.413445 
	C219.647903,96.028122 221.984680,109.467529 222.350433,123.248871 
	C222.556534,131.014084 221.740997,138.806412 221.385681,146.586517 
	C220.917084,146.599106 220.448486,146.611679 219.979874,146.624252 
	C219.372314,140.632523 218.934662,134.617645 218.121948,128.653870 
	C216.408203,116.078415 214.069992,103.665749 206.474167,93.002701 
	C205.611954,91.792343 204.620819,90.653320 203.568741,89.602058 
	C196.746475,82.785080 190.620255,83.164436 184.108154,90.983131 
	C200.782791,106.387352 219.677887,120.680275 216.227692,147.629288 
	C220.330093,148.988205 224.915298,150.040665 229.089706,151.978165 
	C241.141846,157.571976 245.525101,169.457199 240.196899,181.602127 
	C234.249496,195.158478 223.365601,204.136307 211.164688,211.563156 
	C204.816467,215.427383 197.830994,218.244690 190.910431,221.357483 
	C191.926117,220.114182 193.117889,218.987381 194.411285,217.992676 
	C200.993195,212.930542 207.884750,208.227417 214.128784,202.780579 
	C221.951263,195.956833 228.653961,188.094025 231.572418,177.769058 
	C234.134460,168.705078 230.044113,163.001984 220.484467,162.075439 
	C218.627090,169.779800 217.344131,177.679916 214.796127,185.148422 
	C209.897430,199.507065 203.579865,213.031616 186.717407,217.884903 
	C187.605957,219.514114 188.285858,220.760788 188.965759,222.007462 
	C189.445602,225.946854 190.289047,229.881500 190.340271,233.826462 
	C190.529205,248.369797 179.486771,257.535767 163.124344,256.252228 
	C144.067154,254.757355 127.948906,246.224518 113.411407,234.042221 
	C121.256340,236.671921 128.758392,240.285873 136.565948,243.030823 
	C147.431458,246.850906 158.553467,249.669144 170.207733,246.374313 
	C178.539383,244.018829 181.461380,236.593643 177.044479,229.108063 
	C169.903687,231.246948 162.892426,233.883255 155.647125,235.405945 
	C140.397781,238.610809 125.221947,240.098862 112.410675,227.623917 
	C111.210945,229.334854 110.175781,230.811081 109.140610,232.287308 
	C106.932617,234.001114 104.800537,235.824921 102.503716,237.410019 
	C91.579041,244.949493 79.834381,243.301514 71.627991,232.802536 
	C63.516022,222.424316 60.832478,210.032913 60.209869,197.305038 
	C59.781635,188.550766 60.728642,179.729187 61.429039,170.611176 
	C62.114540,171.354797 62.594578,172.405838 62.723042,173.498215 
	C63.555622,180.577957 63.937542,187.732864 65.176453,194.737671 
	C67.269936,206.574295 70.332794,218.174072 79.130356,227.126541 
	C85.506889,233.615341 93.201424,232.492828 97.843506,224.946167 
	C92.056755,219.387848 85.858223,214.286819 80.696510,208.292923 
	C70.904831,196.922577 62.436226,184.785950 66.838356,167.973984 
	C65.112778,167.684784 63.538803,167.421005 61.964825,167.157227 
M173.406677,226.174835 
	C178.287888,225.292496 174.885452,222.590500 174.151993,221.254150 
	C166.345993,207.031677 154.060608,197.235504 141.194916,188.072144 
	C130.758926,194.407623 123.636742,203.182007 120.456306,214.628571 
	C119.744347,217.190979 121.323997,221.187469 123.171188,223.438400 
	C125.002563,225.670029 128.354691,227.025772 131.296997,227.910278 
	C145.203217,232.090744 158.948227,229.509750 173.406677,226.174835 
M177.204834,168.656967 
	C174.449112,169.790649 171.582718,170.724731 168.994049,172.159821 
	C168.007980,172.706436 167.047729,174.439102 167.114609,175.569794 
	C167.798782,187.136505 172.413345,197.121841 180.484787,205.283875 
	C181.971786,206.787552 185.521133,207.110947 187.873444,206.670364 
	C190.491119,206.180054 193.228516,204.626877 195.222443,202.787094 
	C207.376007,191.573120 212.515244,176.740265 216.774307,161.142838 
	C202.684998,159.869431 190.163544,163.438766 177.204834,168.656967 
M135.521774,86.001579 
	C125.594826,86.219078 115.888451,87.663681 106.342262,90.605728 
	C110.611916,102.439590 128.590851,121.224884 141.730469,127.791046 
	C149.581741,121.559372 157.184113,115.242920 160.430969,104.823616 
	C163.103516,96.247238 161.707993,91.534019 153.049438,88.860764 
	C147.729172,87.218178 142.003876,86.887497 135.521774,86.001579 
M114.820885,178.246841 
	C115.858093,174.133392 114.344604,171.975433 110.199562,170.592087 
	C102.217628,167.928207 94.422951,166.080063 85.822327,167.724228 
	C77.161148,169.379990 73.719482,173.225906 75.392586,181.962189 
	C78.568092,198.543274 89.257256,210.389984 100.603714,222.295471 
	C109.864258,208.912704 112.821419,194.186935 114.820885,178.246841 
M95.725037,108.955093 
	C92.921005,110.292702 89.364418,110.960930 87.461601,113.100151 
	C82.759621,118.386314 78.030930,123.933922 74.766617,130.140945 
	C70.753166,137.772415 68.215805,146.180161 64.838646,154.765305 
	C67.293228,154.955765 68.277924,155.070953 69.265312,155.102951 
	C83.793442,155.573730 96.977821,150.644363 110.210770,145.428482 
	C114.972900,143.551453 115.443832,141.156067 114.739983,136.798889 
	C113.264191,127.663017 109.960190,119.459152 103.444733,112.853928 
	C101.658241,111.042809 98.868507,110.221283 95.725037,108.955093 
M167.497849,137.937393 
	C166.159821,141.879501 167.612900,143.775436 171.570816,145.200134 
	C180.183853,148.300491 188.707382,149.981186 197.907684,148.119492 
	C203.225525,147.043411 206.708405,144.618652 206.958908,139.418030 
	C207.108124,136.320236 206.818680,133.050598 205.958862,130.080414 
	C201.753998,115.555168 192.198639,104.571236 181.690002,93.741516 
	C172.344025,107.021408 169.416107,121.869843 167.497849,137.937393 
M135.902908,150.228378 
	C132.305664,152.213928 130.112747,160.222076 132.206436,163.727203 
	C133.264252,165.498123 142.118927,168.794296 143.489410,167.807434 
	C145.982330,166.012329 149.551025,164.526627 150.492386,162.075241 
	C151.556458,159.304382 150.809021,155.412964 149.776291,152.373428 
	C148.586792,148.872437 140.011200,147.553787 135.902908,150.228378 
z"/>
<path fill="#456F98" opacity="1.000000" stroke="none" 
	d="
M662.209106,158.763306 
	C666.078369,165.559494 669.764221,172.037659 674.067139,179.600479 
	C676.221680,172.209061 678.120117,165.956146 679.863647,159.660339 
	C683.367371,147.008835 686.819580,134.342743 690.211792,121.660934 
	C690.861389,119.232445 691.948303,118.037903 694.687805,118.191864 
	C698.828735,118.424583 702.992371,118.252609 707.943298,118.252609 
	C699.928650,147.048523 692.033875,175.413528 684.227234,203.462006 
	C683.497620,203.694489 683.343567,203.778336 683.184631,203.789261 
	C669.773621,204.711639 669.798645,204.697113 663.254578,193.102158 
	C658.301208,184.325745 653.273560,175.591278 647.854736,166.094696 
	C642.480591,175.515656 637.562683,184.133743 632.649048,192.754257 
	C632.071960,193.766769 631.520691,194.793961 630.952637,195.811676 
	C626.368530,204.023087 622.722778,205.768478 613.513855,203.839737 
	C612.528748,203.633392 611.281311,202.414001 611.003418,201.426086 
	C603.399719,174.392578 595.904541,147.328568 588.410095,120.264412 
	C588.285461,119.814438 588.394531,119.299759 588.394531,118.268608 
	C593.230408,118.268608 598.021118,118.028297 602.753235,118.448036 
	C603.851379,118.545441 605.251770,120.753189 605.663757,122.227257 
	C610.537231,139.664948 615.241943,157.149734 620.019287,174.614426 
	C620.355713,175.844543 620.914307,177.013885 621.737976,179.180420 
	C623.732605,175.865540 625.360901,173.272858 626.877747,170.616470 
	C630.754700,163.826630 634.676514,157.059296 638.381775,150.176056 
	C639.821411,147.501678 641.729309,146.848709 644.671448,146.437775 
	C652.461731,145.349655 657.825989,147.584930 660.279358,155.427414 
	C660.617920,156.509552 661.431824,157.442993 662.209106,158.763306 
z"/>
<path fill="#456F98" opacity="1.000000" stroke="none" 
	d="
M391.701294,137.217651 
	C380.263885,129.617767 366.634216,130.187515 356.681549,138.415512 
	C347.123901,146.316940 343.794006,159.894424 348.571930,171.482117 
	C353.512848,183.465073 364.808197,190.233261 378.155640,188.918304 
	C381.081726,188.630035 384.073669,187.791901 386.766113,186.599365 
	C392.689392,183.975800 397.301239,180.376602 395.914673,172.654602 
	C395.370483,169.623978 395.825531,166.413925 395.825531,162.602524 
	C391.561127,162.602524 387.790039,162.602524 384.018921,162.602524 
	C380.388947,162.602524 376.759003,162.602524 372.761841,162.602524 
	C372.761841,157.205322 372.761841,152.295349 372.761841,146.979813 
	C385.447021,146.979813 398.170288,146.979813 411.610199,146.979813 
	C411.610199,154.114075 411.610199,161.209061 411.610199,168.304047 
	C411.610199,170.303589 411.717743,172.310120 411.588013,174.301208 
	C411.310944,178.552826 412.463104,184.078430 410.236115,186.774597 
	C405.696198,192.270996 399.970428,197.728149 393.565857,200.579742 
	C367.196869,212.320389 340.163452,199.816177 332.252747,172.285278 
	C327.297211,155.038864 331.780273,139.521866 345.263214,127.438446 
	C359.390228,114.777817 375.722656,112.353485 393.041077,119.936539 
	C398.655914,122.395065 403.477417,126.665520 409.342102,130.558807 
	C404.680847,134.701645 401.005737,137.968048 397.046295,141.487106 
	C395.260223,140.074188 393.615784,138.773315 391.701294,137.217651 
z"/>
<path fill="#456F98" opacity="1.000000" stroke="none" 
	d="
M1329.769165,188.501480 
	C1312.374390,208.150696 1286.680542,210.668579 1267.099487,194.915390 
	C1249.560547,180.805099 1245.562134,153.997482 1258.333252,135.470413 
	C1271.932251,115.742317 1297.094849,110.517830 1316.048706,121.294266 
	C1320.588623,123.875526 1324.679077,127.247231 1329.550171,130.657104 
	C1325.065918,134.655151 1321.297485,138.014954 1317.259888,141.614777 
	C1310.452515,134.950562 1302.781982,131.341003 1293.332764,131.881973 
	C1281.185547,132.577377 1270.694092,141.344498 1267.501709,153.911987 
	C1264.616943,165.269058 1270.138306,178.994492 1279.906372,184.747299 
	C1291.379272,191.504120 1305.223145,190.432770 1314.140747,181.960022 
	C1315.098389,181.050247 1315.915894,179.505112 1315.970581,178.219498 
	C1316.181274,173.260849 1316.056030,168.287964 1316.056030,162.598862 
	C1311.919678,162.598862 1308.161255,162.598862 1304.402832,162.598862 
	C1300.768677,162.598862 1297.134399,162.598862 1293.166992,162.598862 
	C1293.166992,157.242340 1293.166992,152.335953 1293.166992,147.005768 
	C1305.821533,147.005768 1318.517212,147.005768 1331.823853,147.005768 
	C1331.823853,159.553116 1331.871704,172.138397 1331.744751,184.721909 
	C1331.732910,185.888931 1330.611206,187.044769 1329.769165,188.501480 
z"/>
<path fill="#456F98" opacity="1.000000" stroke="none" 
	d="
M511.686218,194.304398 
	C492.290741,177.829742 490.415710,149.726364 508.015625,130.013138 
	C523.306274,112.886459 550.702637,110.001556 570.723999,127.677910 
	C587.629761,142.603592 589.580444,171.374268 574.690796,188.636887 
	C558.026611,207.956787 530.537231,210.534119 511.686218,194.304398 
M568.098450,166.344894 
	C568.173828,165.684464 568.237854,165.022522 568.326172,164.363815 
	C570.338989,149.347183 560.943298,135.729156 546.229797,132.341293 
	C532.794250,129.247681 518.302429,137.453232 513.588379,150.823486 
	C508.708527,164.663971 515.265381,180.352951 528.497986,186.498505 
	C544.781128,194.060791 562.058350,185.605637 568.098450,166.344894 
z"/>
<path fill="#456F98" opacity="1.000000" stroke="none" 
	d="
M1043.552490,190.440857 
	C1028.173096,173.390442 1027.771729,147.549240 1044.314209,129.402847 
	C1063.243896,108.637779 1099.399048,112.424652 1114.002441,136.716629 
	C1123.967041,153.292145 1122.851318,174.131882 1111.254028,188.054153 
	C1098.273560,203.636597 1078.648804,209.287155 1060.091919,201.759445 
	C1054.140137,199.345078 1049.188721,194.465149 1043.552490,190.440857 
M1086.413696,187.176971 
	C1101.724365,180.831635 1108.660767,164.589844 1102.557495,149.376358 
	C1097.063477,135.681656 1080.750000,128.303421 1067.082275,133.331650 
	C1051.716919,138.984421 1044.408813,154.853989 1049.863647,170.721603 
	C1054.742554,184.913879 1070.413574,192.226395 1086.413696,187.176971 
z"/>
<path fill="#467099" opacity="1.000000" stroke="none" 
	d="
M987.893555,118.247459 
	C995.963623,117.927757 1002.898499,119.361923 1008.414490,125.172989 
	C1017.389587,134.628082 1016.437317,149.156235 1006.202454,157.353958 
	C1005.056213,158.271973 1003.884216,159.157837 1002.435852,160.282562 
	C1012.766235,174.602600 1022.948975,188.717896 1033.887329,203.880600 
	C1027.267944,203.880600 1021.587585,204.035843 1015.929810,203.747543 
	C1014.819885,203.690979 1013.600098,202.062653 1012.765015,200.915970 
	C1004.345825,189.355484 995.843445,177.849747 987.719360,166.083618 
	C985.251099,162.508850 982.603271,161.255936 978.139038,162.550949 
	C978.139038,175.975693 978.139038,189.561646 978.139038,203.544159 
	C972.803223,203.544159 967.910217,203.544159 962.628845,203.544159 
	C962.628845,175.414597 962.628845,147.209625 962.628845,118.247353 
	C970.899170,118.247353 979.154724,118.247353 987.893555,118.247459 
M983.587463,133.993652 
	C981.819824,133.993652 980.052124,133.993652 978.291260,133.993652 
	C978.291260,138.486435 978.291260,142.357361 978.291260,146.382996 
	C983.445007,146.382996 988.249451,146.626160 993.015991,146.305908 
	C996.817810,146.050507 999.201172,143.704620 998.873352,139.692749 
	C998.572937,136.016159 996.229248,134.106003 992.521606,134.028366 
	C989.864502,133.972717 987.205566,134.002151 983.587463,133.993652 
z"/>
<path fill="#467099" opacity="1.000000" stroke="none" 
	d="
M463.873413,183.147797 
	C459.779358,177.455154 455.676849,172.194748 452.061157,166.618652 
	C449.713867,162.998734 447.148956,160.886597 442.064270,162.611404 
	C442.064270,175.984222 442.064270,189.698334 442.064270,203.671753 
	C436.661896,203.671753 431.892975,203.671753 426.685089,203.671753 
	C426.685089,175.479568 426.685089,147.277039 426.685089,118.247292 
	C431.156494,118.247292 435.743164,118.218498 440.329376,118.254372 
	C446.487366,118.302528 452.687744,117.970421 458.792877,118.577011 
	C468.222015,119.513893 475.673340,126.084038 477.855316,134.505005 
	C480.197876,143.545532 476.950592,152.256317 469.041351,158.191360 
	C468.266144,158.773071 467.545776,159.427811 466.501129,160.297424 
	C476.818054,174.615494 486.992218,188.735413 497.882935,203.849762 
	C491.227417,203.849762 485.530212,204.008743 479.857025,203.710480 
	C478.772247,203.653458 477.635773,201.903534 476.773132,200.748032 
	C472.493256,195.015076 468.297150,189.219574 463.873413,183.147797 
M450.465393,133.993652 
	C447.704315,133.993652 444.943237,133.993652 442.138306,133.993652 
	C442.138306,138.468521 442.138306,142.244202 442.138306,146.104843 
	C447.613068,146.104843 452.957062,146.630890 458.093384,145.828156 
	C459.968079,145.535187 462.337585,142.253143 462.720062,140.031525 
	C463.273041,136.819763 460.945618,134.442444 457.407715,134.099228 
	C455.428680,133.907272 453.420197,134.018860 450.465393,133.993652 
z"/>
<path fill="#456F98" opacity="1.000000" stroke="none" 
	d="
M787.059814,159.000000 
	C787.059814,145.347809 787.059814,132.195618 787.059814,118.649651 
	C792.414551,118.649651 797.471069,118.649651 803.003906,118.649651 
	C803.003906,127.801186 803.003906,136.893341 803.003906,146.405792 
	C814.669861,146.405792 825.874207,146.405792 837.611389,146.405792 
	C837.611389,137.277328 837.611389,128.191757 837.611389,118.682419 
	C843.152588,118.682419 848.181763,118.682419 853.535400,118.682419 
	C853.535400,146.958542 853.535400,175.175003 853.535400,203.666672 
	C848.380676,203.666672 843.461609,203.666672 837.970337,203.666672 
	C837.970337,190.193695 837.970337,176.796631 837.970337,163.004959 
	C826.201721,163.004959 814.996094,163.004959 803.250854,163.004959 
	C803.250854,176.539276 803.250854,189.955933 803.250854,203.651337 
	C797.783020,203.651337 792.844666,203.651337 787.059814,203.651337 
	C787.059814,188.988083 787.059814,174.244034 787.059814,159.000000 
z"/>
<path fill="#446E98" opacity="1.000000" stroke="none" 
	d="
M913.921143,201.672058 
	C913.096924,202.735947 912.305725,203.812622 911.472229,203.846481 
	C907.181274,204.020706 902.879456,203.927261 898.291138,203.927261 
	C898.291138,175.296066 898.291138,147.071884 898.291138,118.986839 
	C910.041443,118.986839 921.715637,118.118240 933.194763,119.242195 
	C943.721191,120.272865 951.169617,131.123840 950.434753,141.595306 
	C949.664246,152.575775 941.075684,161.345840 930.167664,161.958862 
	C925.041443,162.246933 919.885681,162.008224 913.934631,162.008224 
	C913.934631,175.382523 913.934631,188.293182 913.921143,201.672058 
M924.225586,146.610413 
	C926.030579,146.464020 928.237549,146.913513 929.546082,146.030975 
	C931.486084,144.722397 934.125366,142.392868 934.024475,140.638397 
	C933.898987,138.457733 931.533447,134.912735 929.697449,134.609787 
	C924.634216,133.774292 919.342834,134.320938 914.199585,134.320938 
	C914.199585,138.630920 914.199585,142.374268 914.199585,146.610184 
	C917.420593,146.610184 920.365051,146.610184 924.225586,146.610413 
z"/>
<path fill="#467099" opacity="1.000000" stroke="none" 
	d="
M1371.551514,172.026337 
	C1372.600464,164.503677 1370.130615,158.814194 1365.844849,153.223404 
	C1358.061646,143.070206 1350.910034,132.432434 1343.517212,121.981171 
	C1342.881958,121.083115 1342.411743,120.068321 1341.384277,118.263260 
	C1347.680664,118.263260 1353.263306,118.047325 1358.807617,118.413055 
	C1360.217285,118.506050 1361.807495,120.225563 1362.798828,121.576271 
	C1368.377563,129.178116 1373.798950,136.895477 1379.743164,145.231384 
	C1385.376465,137.364365 1390.748169,130.227844 1395.686890,122.803146 
	C1397.963989,119.379814 1400.447266,117.778282 1404.639282,118.161873 
	C1408.876221,118.549583 1413.176514,118.247337 1418.524902,118.247337 
	C1411.476074,128.212204 1405.591675,137.867859 1398.369751,146.390045 
	C1390.030396,156.230621 1386.277466,166.749512 1387.701904,179.635025 
	C1388.555420,187.354996 1387.858643,195.246323 1387.858643,203.502441 
	C1382.584473,203.502441 1377.532227,203.502441 1371.551270,203.502441 
	C1371.551270,193.299072 1371.551270,182.910004 1371.551514,172.026337 
z"/>
<path fill="#446E98" opacity="1.000000" stroke="none" 
	d="
M722.215210,118.255714 
	C739.963928,118.255661 757.236450,118.255661 774.756592,118.255661 
	C774.756592,123.722626 774.756592,128.635437 774.756592,133.979736 
	C768.022888,133.979736 761.432373,133.979736 754.181274,133.979736 
	C754.181274,157.405197 754.181274,180.417114 754.181274,203.679810 
	C748.594604,203.679810 743.667480,203.679810 738.247437,203.679810 
	C738.247437,180.772522 738.247437,157.876984 738.247437,134.354614 
	C731.079285,134.354614 724.360168,134.354614 717.361084,134.354614 
	C717.361084,128.815536 717.361084,123.902428 717.361084,118.568909 
	C718.854309,118.462097 720.296692,118.358932 722.215210,118.255714 
z"/>
<path fill="#4C759C" opacity="1.000000" stroke="none" 
	d="
M1165.898682,150.547699 
	C1162.051514,136.868515 1154.079468,127.279617 1141.316528,121.716522 
	C1139.849854,121.077217 1138.853149,119.359444 1137.638550,118.141678 
	C1139.259155,117.035393 1140.733398,115.393654 1142.522705,114.905121 
	C1161.892578,109.616386 1181.093384,116.494965 1193.206177,132.870041 
	C1204.329834,147.907974 1204.869873,168.965530 1194.569580,186.037888 
	C1185.274048,201.445160 1165.515869,210.445374 1147.321289,207.189713 
	C1143.981323,206.592041 1138.658081,205.099899 1138.159790,203.063843 
	C1137.084595,198.670349 1142.607666,198.914658 1145.412964,197.374420 
	C1161.630493,188.469955 1169.765625,170.264435 1165.898682,150.547699 
M1194.549927,148.178192 
	C1188.358643,127.043884 1166.163818,115.678185 1149.694946,119.731148 
	C1164.790039,129.488647 1172.683228,143.268173 1172.595459,160.679367 
	C1172.507812,178.096893 1164.492188,191.809692 1149.332275,201.466644 
	C1176.275757,206.258774 1203.169434,180.375702 1194.549927,148.178192 
z"/>
<path fill="#456F98" opacity="1.000000" stroke="none" 
	d="
M1235.940186,126.084808 
	C1235.940186,152.176117 1235.940186,177.780869 1235.940186,203.661804 
	C1230.515991,203.661804 1225.593384,203.661804 1220.292236,203.661804 
	C1220.292236,175.422241 1220.292236,147.205109 1220.292236,118.619919 
	C1225.288086,118.619919 1230.339111,118.619919 1235.940186,118.619919 
	C1235.940186,121.035431 1235.940186,123.316841 1235.940186,126.084808 
z"/>
<path fill="#F7F9FB" opacity="1.000000" stroke="none" 
	d="
M109.488068,232.508789 
	C110.175781,230.811081 111.210945,229.334854 112.410675,227.623917 
	C125.221947,240.098862 140.397781,238.610809 155.647125,235.405945 
	C162.892426,233.883255 169.903687,231.246948 177.044479,229.108063 
	C181.461380,236.593643 178.539383,244.018829 170.207733,246.374313 
	C158.553467,249.669144 147.431458,246.850906 136.565948,243.030823 
	C128.758392,240.285873 121.256340,236.671921 113.308365,233.720810 
	C112.998726,233.995987 113.047104,234.004120 113.019020,233.617126 
	C112.473763,233.146820 111.956596,233.063492 111.439423,232.980164 
	C110.904793,232.896866 110.370155,232.813553 109.488068,232.508789 
z"/>
<path fill="#F7F9FB" opacity="1.000000" stroke="none" 
	d="
M61.827049,167.439484 
	C63.538803,167.421005 65.112778,167.684784 66.838356,167.973984 
	C62.436226,184.785950 70.904831,196.922577 80.696510,208.292923 
	C85.858223,214.286819 92.056755,219.387848 97.843506,224.946167 
	C93.201424,232.492828 85.506889,233.615341 79.130356,227.126541 
	C70.332794,218.174072 67.269936,206.574295 65.176453,194.737671 
	C63.937542,187.732864 63.555622,180.577957 62.723042,173.498215 
	C62.594578,172.405838 62.114540,171.354797 61.415047,170.189240 
	C61.251751,169.303146 61.470509,168.512466 61.827049,167.439484 
z"/>
<path fill="#F7F9FB" opacity="1.000000" stroke="none" 
	d="
M189.145264,222.015808 
	C188.285858,220.760788 187.605957,219.514114 186.717407,217.884903 
	C203.579865,213.031616 209.897430,199.507065 214.796127,185.148422 
	C217.344131,177.679916 218.627090,169.779800 220.484467,162.075439 
	C230.044113,163.001984 234.134460,168.705078 231.572418,177.769058 
	C228.653961,188.094025 221.951263,195.956833 214.128784,202.780579 
	C207.884750,208.227417 200.993195,212.930542 194.411285,217.992676 
	C193.117889,218.987381 191.926117,220.114182 190.540466,221.583740 
	C190.037231,221.999680 189.681000,222.011917 189.145264,222.015808 
z"/>
<path fill="#F9FAFC" opacity="1.000000" stroke="none" 
	d="
M93.023781,93.180817 
	C93.779518,94.465416 94.494125,96.086624 95.210579,97.712029 
	C72.097054,106.958786 67.535530,127.536819 63.196041,148.246063 
	C62.823574,150.023590 62.584457,151.829071 62.291782,153.571655 
	C54.105000,154.240845 48.499821,148.023712 50.142307,140.149811 
	C51.938263,131.540192 56.547340,124.271729 62.921219,118.601639 
	C72.085983,110.448837 81.972992,103.107918 91.820816,95.212631 
	C92.089905,95.004799 92.024559,95.041740 92.145203,94.900711 
	C92.545532,94.643021 92.761757,94.453857 92.914528,94.192177 
	C92.937241,93.967247 92.959946,93.742325 93.023781,93.180817 
z"/>
<path fill="#477099" opacity="1.000000" stroke="none" 
	d="
M92.696991,94.271896 
	C92.761757,94.453857 92.545532,94.643021 92.110138,94.914078 
	C91.991447,94.728470 92.166458,94.489510 92.696991,94.271896 
z"/>
<path fill="#477099" opacity="1.000000" stroke="none" 
	d="
M111.655502,233.234314 
	C111.956596,233.063492 112.473763,233.146820 113.013893,233.641632 
	C112.648422,233.864914 112.260002,233.676682 111.655502,233.234314 
z"/>
<path fill="#FDFEFE" opacity="1.000000" stroke="none" 
	d="
M173.022049,226.287369 
	C158.948227,229.509750 145.203217,232.090744 131.296997,227.910278 
	C128.354691,227.025772 125.002563,225.670029 123.171188,223.438400 
	C121.323997,221.187469 119.744347,217.190979 120.456306,214.628571 
	C123.636742,203.182007 130.758926,194.407623 141.194916,188.072144 
	C154.060608,197.235504 166.345993,207.031677 174.151993,221.254150 
	C174.885452,222.590500 178.287888,225.292496 173.022049,226.287369 
z"/>
<path fill="#FDFEFE" opacity="1.000000" stroke="none" 
	d="
M177.540192,168.461823 
	C190.163544,163.438766 202.684998,159.869431 216.774307,161.142838 
	C212.515244,176.740265 207.376007,191.573120 195.222443,202.787094 
	C193.228516,204.626877 190.491119,206.180054 187.873444,206.670364 
	C185.521133,207.110947 181.971786,206.787552 180.484787,205.283875 
	C172.413345,197.121841 167.798782,187.136505 167.114609,175.569794 
	C167.047729,174.439102 168.007980,172.706436 168.994049,172.159821 
	C171.582718,170.724731 174.449112,169.790649 177.540192,168.461823 
z"/>
<path fill="#FDFEFE" opacity="1.000000" stroke="none" 
	d="
M135.991119,85.984665 
	C142.003876,86.887497 147.729172,87.218178 153.049438,88.860764 
	C161.707993,91.534019 163.103516,96.247238 160.430969,104.823616 
	C157.184113,115.242920 149.581741,121.559372 141.730469,127.791046 
	C128.590851,121.224884 110.611916,102.439590 106.342262,90.605728 
	C115.888451,87.663681 125.594826,86.219078 135.991119,85.984665 
z"/>
<path fill="#FDFEFE" opacity="1.000000" stroke="none" 
	d="
M114.752365,178.675476 
	C112.821419,194.186935 109.864258,208.912704 100.603714,222.295471 
	C89.257256,210.389984 78.568092,198.543274 75.392586,181.962189 
	C73.719482,173.225906 77.161148,169.379990 85.822327,167.724228 
	C94.422951,166.080063 102.217628,167.928207 110.199562,170.592087 
	C114.344604,171.975433 115.858093,174.133392 114.752365,178.675476 
z"/>
<path fill="#FDFEFE" opacity="1.000000" stroke="none" 
	d="
M96.132088,108.950371 
	C98.868507,110.221283 101.658241,111.042809 103.444733,112.853928 
	C109.960190,119.459152 113.264191,127.663017 114.739983,136.798889 
	C115.443832,141.156067 114.972900,143.551453 110.210770,145.428482 
	C96.977821,150.644363 83.793442,155.573730 69.265312,155.102951 
	C68.277924,155.070953 67.293228,154.955765 64.838646,154.765305 
	C68.215805,146.180161 70.753166,137.772415 74.766617,130.140945 
	C78.030930,123.933922 82.759621,118.386314 87.461601,113.100151 
	C89.364418,110.960930 92.921005,110.292702 96.132088,108.950371 
z"/>
<path fill="#FDFEFE" opacity="1.000000" stroke="none" 
	d="
M167.549835,137.510941 
	C169.416107,121.869843 172.344025,107.021408 181.690002,93.741516 
	C192.198639,104.571236 201.753998,115.555168 205.958862,130.080414 
	C206.818680,133.050598 207.108124,136.320236 206.958908,139.418030 
	C206.708405,144.618652 203.225525,147.043411 197.907684,148.119492 
	C188.707382,149.981186 180.183853,148.300491 171.570816,145.200134 
	C167.612900,143.775436 166.159821,141.879501 167.549835,137.510941 
z"/>
<path fill="#FCFDFD" opacity="1.000000" stroke="none" 
	d="
M136.235062,150.038910 
	C140.011200,147.553787 148.586792,148.872437 149.776291,152.373428 
	C150.809021,155.412964 151.556458,159.304382 150.492386,162.075241 
	C149.551025,164.526627 145.982330,166.012329 143.489410,167.807434 
	C142.118927,168.794296 133.264252,165.498123 132.206436,163.727203 
	C130.112747,160.222076 132.305664,152.213928 136.235062,150.038910 
z"/>
<path fill="#FDFEFE" opacity="1.000000" stroke="none" 
	d="
M568.048706,166.756134 
	C562.058350,185.605637 544.781128,194.060791 528.497986,186.498505 
	C515.265381,180.352951 508.708527,164.663971 513.588379,150.823486 
	C518.302429,137.453232 532.794250,129.247681 546.229797,132.341293 
	C560.943298,135.729156 570.338989,149.347183 568.326172,164.363815 
	C568.237854,165.022522 568.173828,165.684464 568.048706,166.756134 
z"/>
<path fill="#FDFEFE" opacity="1.000000" stroke="none" 
	d="
M1086.034668,187.300110 
	C1070.413574,192.226395 1054.742554,184.913879 1049.863647,170.721603 
	C1044.408813,154.853989 1051.716919,138.984421 1067.082275,133.331650 
	C1080.750000,128.303421 1097.063477,135.681656 1102.557495,149.376358 
	C1108.660767,164.589844 1101.724365,180.831635 1086.034668,187.300110 
z"/>
<path fill="#F7F9FB" opacity="1.000000" stroke="none" 
	d="
M984.067505,133.993652 
	C987.205566,134.002151 989.864502,133.972717 992.521606,134.028366 
	C996.229248,134.106003 998.572937,136.016159 998.873352,139.692749 
	C999.201172,143.704620 996.817810,146.050507 993.015991,146.305908 
	C988.249451,146.626160 983.445007,146.382996 978.291260,146.382996 
	C978.291260,142.357361 978.291260,138.486435 978.291260,133.993652 
	C980.052124,133.993652 981.819824,133.993652 984.067505,133.993652 
z"/>
<path fill="#F7F9FB" opacity="1.000000" stroke="none" 
	d="
M450.945190,133.993652 
	C453.420197,134.018860 455.428680,133.907272 457.407715,134.099228 
	C460.945618,134.442444 463.273041,136.819763 462.720062,140.031525 
	C462.337585,142.253143 459.968079,145.535187 458.093384,145.828156 
	C452.957062,146.630890 447.613068,146.104843 442.138306,146.104843 
	C442.138306,142.244202 442.138306,138.468521 442.138306,133.993652 
	C444.943237,133.993652 447.704315,133.993652 450.945190,133.993652 
z"/>
<path fill="#F7F9FB" opacity="1.000000" stroke="none" 
	d="
M923.767578,146.610291 
	C920.365051,146.610184 917.420593,146.610184 914.199585,146.610184 
	C914.199585,142.374268 914.199585,138.630920 914.199585,134.320938 
	C919.342834,134.320938 924.634216,133.774292 929.697449,134.609787 
	C931.533447,134.912735 933.898987,138.457733 934.024475,140.638397 
	C934.125366,142.392868 931.486084,144.722397 929.546082,146.030975 
	C928.237549,146.913513 926.030579,146.464020 923.767578,146.610291 
z"/>
<path fill="#FCFDFD" opacity="1.000000" stroke="none" 
	d="
M1194.682983,148.568573 
	C1203.169434,180.375702 1176.275757,206.258774 1149.332275,201.466644 
	C1164.492188,191.809692 1172.507812,178.096893 1172.595459,160.679367 
	C1172.683228,143.268173 1164.790039,129.488647 1149.694946,119.731148 
	C1166.163818,115.678185 1188.358643,127.043884 1194.682983,148.568573 
z"/>
</svg>