<?xml version="1.0" encoding="UTF-8"?>
<svg xmlns="http://www.w3.org/2000/svg" xmlns:xlink="http://www.w3.org/1999/xlink" width="3636px" height="800px" viewBox="0 0 3617 800" version="1.1">
<g id="surface1">
<path style=" stroke:none;fill-rule:nonzero;fill:rgb(100%,100%,100%);fill-opacity:1;" d="M 2608.414062 802.484375 C 1738.941406 802.484375 870.714844 802.484375 2.484375 802.484375 C 2.484375 535.816406 2.484375 269.152344 2.484375 2.484375 C 1208.152344 2.484375 2413.816406 2.484375 3619.484375 2.484375 C 3619.484375 269.152344 3619.484375 535.816406 3619.484375 802.484375 C 3282.875 802.484375 2946.265625 802.484375 2608.414062 802.484375 M 228.609375 236.128906 C 228.609375 236.128906 228.769531 236.035156 226.792969 235.921875 C 175.519531 253.921875 131.773438 281.921875 105.769531 331.449219 C 93.214844 355.359375 97.089844 380.921875 115.808594 395.941406 C 126.6875 404.671875 141.105469 408.992188 153.25 416.699219 C 152.707031 418.664062 152.160156 420.628906 151.6875 424.691406 C 150.863281 446.53125 148.507812 468.449219 149.574219 490.199219 C 151.121094 521.820312 157.785156 552.605469 177.9375 578.390625 C 198.324219 604.476562 227.5 608.570312 254.640625 589.839844 C 260.347656 585.902344 265.640625 581.371094 272.855469 578.210938 C 274.183594 578.417969 275.511719 578.625 277.910156 580.09375 C 278.875 580.5625 279.839844 581.03125 280.832031 581.375 C 280.832031 581.375 280.710938 581.355469 281.222656 582.953125 C 317.851562 611.738281 357.890625 632.9375 405.234375 636.652344 C 445.882812 639.839844 473.3125 617.066406 472.84375 580.933594 C 472.714844 571.132812 470.621094 561.359375 470.320312 551.613281 C 471.207031 551.582031 472.089844 551.550781 474.8125 550.398438 C 491.453125 542.222656 508.804688 535.222656 524.574219 525.621094 C 554.886719 507.171875 581.921875 484.867188 596.699219 451.183594 C 609.933594 421.011719 599.046875 391.484375 569.105469 377.585938 C 558.734375 372.773438 547.34375 370.15625 537.152344 366.78125 C 545.722656 299.828125 498.785156 264.316406 457.363281 226.046875 C 473.539062 206.621094 488.757812 205.675781 505.707031 222.613281 C 508.320312 225.226562 510.78125 228.054688 512.921875 231.0625 C 531.792969 257.554688 537.601562 288.394531 541.859375 319.636719 C 543.878906 334.453125 544.964844 349.398438 546.476562 364.285156 C 547.640625 364.253906 548.804688 364.222656 549.96875 364.191406 C 550.851562 344.859375 552.875 325.5 552.363281 306.207031 C 551.453125 271.96875 545.648438 238.578125 525.394531 209.722656 C 504.605469 180.105469 472.136719 175.332031 443.546875 197.472656 C 435.460938 203.734375 428.523438 211.480469 422.066406 217.59375 C 368.085938 176.507812 313.84375 199.648438 260.058594 216.324219 C 251.710938 188.933594 260.734375 174.675781 287.664062 170.988281 C 323.613281 166.066406 356.125 178.042969 388.3125 191.457031 C 399.355469 196.058594 410.167969 201.207031 421.085938 206.109375 C 383.664062 173.496094 341.816406 150.339844 291.578125 148.3125 C 245.398438 146.453125 220.175781 178.289062 230.132812 223.355469 C 230.660156 225.753906 230.847656 228.230469 230.988281 232.339844 C 230.929688 232.898438 230.875 233.460938 229.738281 234.414062 C 228.960938 234.757812 228.527344 235.351562 228.609375 236.128906 M 1644.605469 393.652344 C 1643.132812 391.164062 1641.109375 388.84375 1640.269531 386.15625 C 1634.171875 366.671875 1620.847656 361.117188 1601.496094 363.820312 C 1594.1875 364.839844 1589.445312 366.464844 1585.871094 373.109375 C 1576.664062 390.210938 1566.921875 407.023438 1557.292969 423.890625 C 1553.523438 430.492188 1549.480469 436.933594 1544.523438 445.167969 C 1542.476562 439.785156 1541.089844 436.878906 1540.253906 433.824219 C 1528.386719 390.433594 1516.699219 346.992188 1504.59375 303.671875 C 1503.570312 300.007812 1500.089844 294.523438 1497.363281 294.28125 C 1485.605469 293.238281 1473.703125 293.835938 1461.691406 293.835938 C 1461.691406 296.398438 1461.421875 297.675781 1461.730469 298.792969 C 1480.347656 366.035156 1498.96875 433.273438 1517.855469 500.4375 C 1518.546875 502.890625 1521.644531 505.921875 1524.09375 506.433594 C 1546.96875 511.226562 1556.027344 506.890625 1567.414062 486.488281 C 1568.824219 483.960938 1570.195312 481.40625 1571.628906 478.890625 C 1583.835938 457.476562 1596.050781 436.0625 1609.402344 412.65625 C 1622.863281 436.25 1635.355469 457.953125 1647.660156 479.757812 C 1663.914062 508.5625 1663.855469 508.601562 1697.167969 506.308594 C 1697.5625 506.28125 1697.945312 506.074219 1699.757812 505.496094 C 1719.152344 435.808594 1738.765625 365.339844 1758.675781 293.796875 C 1746.375 293.796875 1736.03125 294.222656 1725.746094 293.644531 C 1718.941406 293.261719 1716.238281 296.230469 1714.625 302.261719 C 1706.199219 333.769531 1697.625 365.238281 1688.917969 396.671875 C 1684.589844 412.3125 1679.871094 427.847656 1674.519531 446.210938 C 1663.832031 427.421875 1654.675781 411.328125 1644.605469 393.652344 M 973.738281 341.546875 C 977.820312 344.777344 981.90625 348.011719 986.34375 351.519531 C 996.179688 342.777344 1005.308594 334.664062 1016.890625 324.371094 C 1002.320312 314.695312 990.34375 304.085938 976.394531 297.980469 C 933.371094 279.140625 892.796875 285.164062 857.703125 316.617188 C 824.210938 346.636719 813.074219 385.191406 825.382812 428.039062 C 845.035156 496.4375 912.191406 527.503906 977.699219 498.335938 C 993.609375 491.25 1007.832031 477.691406 1019.109375 464.035156 C 1024.640625 457.335938 1021.78125 443.609375 1022.46875 433.046875 C 1022.789062 428.101562 1022.523438 423.113281 1022.523438 418.148438 C 1022.523438 400.519531 1022.523438 382.890625 1022.523438 365.167969 C 989.136719 365.167969 957.527344 365.167969 926.015625 365.167969 C 926.015625 378.375 926.015625 390.570312 926.015625 403.980469 C 935.945312 403.980469 944.964844 403.980469 953.980469 403.980469 C 963.347656 403.980469 972.71875 403.980469 983.3125 403.980469 C 983.3125 413.449219 982.179688 421.425781 983.53125 428.957031 C 986.976562 448.140625 975.519531 457.082031 960.804688 463.601562 C 954.117188 466.5625 946.683594 468.644531 939.414062 469.363281 C 906.257812 472.628906 878.199219 455.8125 865.921875 426.042969 C 854.054688 397.253906 862.328125 363.519531 886.070312 343.890625 C 910.792969 323.445312 944.652344 322.03125 973.738281 341.546875 M 3304.003906 467.59375 C 3305.507812 464.707031 3308.296875 461.835938 3308.324219 458.9375 C 3308.640625 427.671875 3308.519531 396.40625 3308.519531 365.230469 C 3275.464844 365.230469 3243.925781 365.230469 3212.488281 365.230469 C 3212.488281 378.472656 3212.488281 390.664062 3212.488281 403.972656 C 3222.34375 403.972656 3231.375 403.972656 3240.402344 403.972656 C 3249.738281 403.972656 3259.074219 403.972656 3269.351562 403.972656 C 3269.351562 418.105469 3269.660156 430.460938 3269.136719 442.78125 C 3269.003906 445.976562 3266.972656 449.8125 3264.59375 452.074219 C 3242.441406 473.125 3208.046875 475.785156 3179.546875 459 C 3155.28125 444.707031 3141.566406 410.605469 3148.730469 382.390625 C 3156.664062 351.167969 3182.726562 329.386719 3212.902344 327.65625 C 3236.375 326.3125 3255.429688 335.28125 3272.339844 351.839844 C 3282.371094 342.894531 3291.734375 334.546875 3302.871094 324.613281 C 3290.773438 316.140625 3280.609375 307.765625 3269.332031 301.351562 C 3222.246094 274.578125 3159.738281 287.558594 3125.957031 336.574219 C 3094.230469 382.601562 3104.164062 449.207031 3147.734375 484.261719 C 3196.375 523.398438 3260.203125 517.144531 3304.003906 467.59375 M 1271.84375 483.273438 C 1317.960938 523.066406 1386.25 516.664062 1427.648438 468.664062 C 1464.636719 425.773438 1459.792969 354.292969 1417.792969 317.210938 C 1368.058594 273.296875 1300 280.464844 1262.015625 323.015625 C 1218.292969 371.992188 1222.949219 441.8125 1271.84375 483.273438 M 2592.960938 473.820312 C 2606.398438 483.144531 2618.699219 495.265625 2633.484375 501.265625 C 2679.582031 519.96875 2728.335938 505.929688 2760.582031 467.214844 C 2789.390625 432.625 2792.164062 380.851562 2767.410156 339.667969 C 2731.128906 279.316406 2641.3125 269.90625 2594.289062 321.496094 C 2553.195312 366.582031 2554.191406 430.785156 2592.960938 473.820312 M 2452.929688 293.78125 C 2432.417969 293.78125 2411.910156 293.78125 2391.367188 293.78125 C 2391.367188 365.738281 2391.367188 435.8125 2391.367188 505.699219 C 2404.484375 505.699219 2416.640625 505.699219 2429.894531 505.699219 C 2429.894531 470.960938 2429.894531 437.207031 2429.894531 403.851562 C 2440.984375 400.636719 2447.5625 403.75 2453.695312 412.628906 C 2473.878906 441.863281 2495 470.449219 2515.914062 499.171875 C 2517.988281 502.019531 2521.019531 506.066406 2523.777344 506.203125 C 2537.832031 506.921875 2551.941406 506.535156 2568.386719 506.535156 C 2541.214844 468.863281 2515.917969 433.796875 2490.253906 398.21875 C 2493.851562 395.421875 2496.765625 393.222656 2499.613281 390.941406 C 2525.035156 370.574219 2527.402344 334.480469 2505.105469 310.988281 C 2491.402344 296.550781 2474.175781 292.988281 2452.929688 293.78125 M 1152.847656 455.765625 C 1163.34375 470.109375 1173.769531 484.507812 1184.402344 498.753906 C 1186.542969 501.625 1189.367188 505.972656 1192.0625 506.113281 C 1206.15625 506.855469 1220.308594 506.460938 1236.84375 506.460938 C 1209.789062 468.90625 1184.511719 433.828125 1158.882812 398.253906 C 1161.480469 396.09375 1163.269531 394.46875 1165.195312 393.023438 C 1184.84375 378.277344 1192.910156 356.636719 1187.089844 334.175781 C 1181.667969 313.253906 1163.160156 296.929688 1139.734375 294.601562 C 1124.570312 293.09375 1109.164062 293.917969 1093.867188 293.800781 C 1082.472656 293.710938 1071.082031 293.78125 1059.972656 293.78125 C 1059.972656 365.90625 1059.972656 435.972656 1059.972656 506.015625 C 1072.910156 506.015625 1084.757812 506.015625 1098.175781 506.015625 C 1098.175781 471.300781 1098.175781 437.226562 1098.175781 404.003906 C 1110.808594 399.71875 1117.179688 404.964844 1123.011719 413.960938 C 1131.992188 427.8125 1142.183594 440.882812 1152.847656 455.765625 M 1955.214844 396.273438 C 1955.214844 432.90625 1955.214844 469.535156 1955.214844 505.964844 C 1969.585938 505.964844 1981.855469 505.964844 1995.4375 505.964844 C 1995.4375 471.941406 1995.4375 438.605469 1995.4375 404.980469 C 2024.617188 404.980469 2052.453125 404.980469 2081.6875 404.980469 C 2081.6875 439.246094 2081.6875 472.53125 2081.6875 506.003906 C 2095.332031 506.003906 2107.550781 506.003906 2120.355469 506.003906 C 2120.355469 435.21875 2120.355469 365.113281 2120.355469 294.863281 C 2107.054688 294.863281 2094.5625 294.863281 2080.796875 294.863281 C 2080.796875 318.488281 2080.796875 341.0625 2080.796875 363.742188 C 2051.640625 363.742188 2023.804688 363.742188 1994.824219 363.742188 C 1994.824219 340.109375 1994.824219 317.519531 1994.824219 294.78125 C 1981.082031 294.78125 1968.519531 294.78125 1955.214844 294.78125 C 1955.214844 328.4375 1955.214844 361.113281 1955.214844 396.273438 M 2270.398438 499.886719 C 2270.398438 467.808594 2270.398438 435.734375 2270.398438 402.503906 C 2285.183594 402.503906 2297.992188 403.097656 2310.726562 402.382812 C 2337.824219 400.859375 2359.160156 379.070312 2361.074219 351.789062 C 2362.898438 325.773438 2344.394531 298.816406 2318.246094 296.253906 C 2289.730469 293.460938 2260.726562 295.621094 2231.539062 295.621094 C 2231.539062 365.394531 2231.539062 435.519531 2231.539062 506.652344 C 2242.9375 506.652344 2253.621094 506.882812 2264.28125 506.449219 C 2266.351562 506.367188 2268.320312 503.691406 2270.398438 499.886719 M 3407.210938 428.625 C 3407.210938 454.433594 3407.210938 480.246094 3407.210938 505.597656 C 3422.070312 505.597656 3434.621094 505.597656 3447.722656 505.597656 C 3447.722656 485.085938 3449.453125 465.476562 3447.332031 446.296875 C 3443.796875 414.285156 3453.117188 388.152344 3473.835938 363.703125 C 3491.777344 342.527344 3506.394531 318.539062 3523.902344 293.78125 C 3510.617188 293.78125 3499.933594 294.53125 3489.410156 293.570312 C 3478.996094 292.617188 3472.828125 296.597656 3467.171875 305.101562 C 3454.902344 323.546875 3441.558594 341.277344 3427.5625 360.824219 C 3412.796875 340.113281 3399.328125 320.9375 3385.46875 302.054688 C 3383.007812 298.695312 3379.054688 294.425781 3375.554688 294.195312 C 3361.78125 293.285156 3347.914062 293.820312 3332.269531 293.820312 C 3334.824219 298.304688 3335.992188 300.828125 3337.570312 303.058594 C 3355.933594 329.023438 3373.703125 355.453125 3393.035156 380.679688 C 3403.683594 394.570312 3409.820312 408.703125 3407.210938 428.625 M 1792.945312 293.804688 C 1789.363281 294.058594 1785.78125 294.316406 1782.070312 294.582031 C 1782.070312 307.832031 1782.070312 320.039062 1782.070312 333.800781 C 1799.457031 333.800781 1816.148438 333.800781 1833.957031 333.800781 C 1833.957031 392.242188 1833.957031 449.125 1833.957031 506.035156 C 1847.421875 506.035156 1859.660156 506.035156 1873.539062 506.035156 C 1873.539062 448.242188 1873.539062 391.070312 1873.539062 332.867188 C 1891.554688 332.867188 1907.925781 332.867188 1924.652344 332.867188 C 1924.652344 319.589844 1924.652344 307.386719 1924.652344 293.804688 C 1881.128906 293.804688 1838.222656 293.804688 1792.945312 293.804688 M 2896.546875 375.046875 C 2905.9375 423.015625 2885.726562 468.25 2845.4375 490.371094 C 2838.46875 494.199219 2824.75 493.589844 2827.421875 504.507812 C 2828.65625 509.566406 2841.882812 513.273438 2850.179688 514.757812 C 2895.378906 522.84375 2944.460938 500.484375 2967.554688 462.207031 C 2993.140625 419.789062 2991.800781 367.472656 2964.167969 330.113281 C 2934.074219 289.429688 2886.378906 272.339844 2838.257812 285.480469 C 2833.8125 286.691406 2830.152344 290.769531 2826.125 293.519531 C 2829.144531 296.546875 2831.617188 300.8125 2835.261719 302.402344 C 2866.96875 316.222656 2886.773438 340.046875 2896.546875 375.046875 M 3070.328125 312.046875 C 3070.328125 306.378906 3070.328125 300.710938 3070.328125 294.707031 C 3056.414062 294.707031 3043.863281 294.707031 3031.453125 294.707031 C 3031.453125 365.726562 3031.453125 435.832031 3031.453125 505.992188 C 3044.625 505.992188 3056.851562 505.992188 3070.328125 505.992188 C 3070.328125 441.691406 3070.328125 378.078125 3070.328125 312.046875 Z M 3070.328125 312.046875 "/>
<path style=" stroke:none;fill-rule:nonzero;fill:rgb(27.843137%,43.921569%,60%);fill-opacity:1;" d="M 153.933594 415.296875 C 141.105469 408.992188 126.6875 404.671875 115.808594 395.941406 C 97.089844 380.921875 93.214844 355.359375 105.769531 331.449219 C 131.773438 281.921875 175.519531 253.921875 227.113281 236.496094 C 203.636719 256.167969 179.078125 274.40625 156.308594 294.664062 C 140.476562 308.75 129.023438 326.808594 124.5625 348.199219 C 120.484375 367.761719 134.40625 383.207031 154.746094 381.542969 C 155.472656 377.214844 156.066406 372.730469 156.992188 368.3125 C 167.773438 316.863281 179.105469 265.734375 236.523438 242.761719 C 234.742188 238.722656 232.96875 234.695312 231.191406 230.667969 C 230.847656 228.230469 230.660156 225.753906 230.132812 223.355469 C 220.175781 178.289062 245.398438 146.453125 291.578125 148.3125 C 341.816406 150.339844 383.664062 173.496094 421.085938 206.109375 C 410.167969 201.207031 399.355469 196.058594 388.3125 191.457031 C 356.125 178.042969 323.613281 166.066406 287.664062 170.988281 C 260.734375 174.675781 251.710938 188.933594 260.058594 216.324219 C 313.84375 199.648438 368.085938 176.507812 422.066406 217.59375 C 428.523438 211.480469 435.460938 203.734375 443.546875 197.472656 C 472.136719 175.332031 504.605469 180.105469 525.394531 209.722656 C 545.648438 238.578125 551.453125 271.96875 552.363281 306.207031 C 552.875 325.5 550.851562 344.859375 549.96875 364.191406 C 548.804688 364.222656 547.640625 364.253906 546.476562 364.285156 C 544.964844 349.398438 543.878906 334.453125 541.859375 319.636719 C 537.601562 288.394531 531.792969 257.554688 512.921875 231.0625 C 510.78125 228.054688 508.320312 225.226562 505.707031 222.613281 C 488.757812 205.675781 473.539062 206.621094 457.363281 226.046875 C 498.785156 264.316406 545.722656 299.828125 537.152344 366.78125 C 547.34375 370.15625 558.734375 372.773438 569.105469 377.585938 C 599.046875 391.484375 609.933594 421.011719 596.699219 451.183594 C 581.921875 484.867188 554.886719 507.171875 524.574219 525.621094 C 508.804688 535.222656 491.453125 542.222656 474.261719 549.957031 C 476.785156 546.867188 479.742188 544.066406 482.957031 541.597656 C 499.308594 529.019531 516.429688 517.335938 531.9375 503.800781 C 551.371094 486.847656 568.023438 467.3125 575.273438 441.664062 C 581.636719 419.144531 571.476562 404.972656 547.726562 402.671875 C 543.113281 421.8125 539.925781 441.441406 533.597656 459.996094 C 521.429688 495.667969 505.734375 529.269531 463.84375 541.328125 C 466.050781 545.375 467.742188 548.472656 469.429688 551.570312 C 470.621094 561.359375 472.714844 571.132812 472.84375 580.933594 C 473.3125 617.066406 445.882812 639.839844 405.234375 636.652344 C 357.890625 632.9375 317.851562 611.738281 281.738281 581.472656 C 301.226562 588.003906 319.863281 596.984375 339.257812 603.804688 C 366.25 613.292969 393.878906 620.296875 422.832031 612.109375 C 443.527344 606.257812 450.785156 587.808594 439.816406 569.210938 C 422.074219 574.527344 404.65625 581.078125 386.660156 584.859375 C 348.777344 592.820312 311.078125 596.519531 279.25 565.523438 C 276.269531 569.777344 273.699219 573.445312 271.128906 577.109375 C 265.640625 581.371094 260.347656 585.902344 254.640625 589.839844 C 227.5 608.570312 198.324219 604.476562 177.9375 578.390625 C 157.785156 552.605469 151.121094 521.820312 149.574219 490.199219 C 148.507812 468.449219 150.863281 446.53125 152.601562 423.878906 C 154.304688 425.726562 155.496094 428.335938 155.816406 431.050781 C 157.886719 448.640625 158.832031 466.417969 161.910156 483.820312 C 167.113281 513.226562 174.722656 542.046875 196.574219 564.289062 C 212.417969 580.410156 231.53125 577.621094 243.0625 558.871094 C 228.6875 545.0625 213.289062 532.390625 200.464844 517.496094 C 176.140625 489.25 155.105469 459.09375 166.039062 417.328125 C 161.753906 416.609375 157.84375 415.953125 153.933594 415.296875 M 430.777344 561.925781 C 442.902344 559.734375 434.449219 553.019531 432.628906 549.699219 C 413.238281 514.363281 382.71875 490.027344 350.757812 467.261719 C 324.832031 483 307.140625 504.800781 299.238281 533.238281 C 297.46875 539.605469 301.394531 549.535156 305.980469 555.125 C 310.53125 560.671875 318.859375 564.039062 326.167969 566.238281 C 360.714844 576.621094 394.859375 570.210938 430.777344 561.925781 M 440.210938 419.023438 C 433.367188 421.839844 426.246094 424.160156 419.816406 427.726562 C 417.367188 429.085938 414.980469 433.390625 415.148438 436.199219 C 416.847656 464.933594 428.308594 489.742188 448.359375 510.023438 C 452.054688 513.757812 460.871094 514.5625 466.714844 513.464844 C 473.21875 512.25 480.019531 508.390625 484.972656 503.820312 C 515.164062 475.957031 527.929688 439.105469 538.511719 400.355469 C 503.511719 397.191406 472.40625 406.058594 440.210938 419.023438 M 336.664062 213.667969 C 312.003906 214.207031 287.890625 217.796875 264.175781 225.105469 C 274.78125 254.507812 319.445312 301.179688 352.085938 317.492188 C 371.589844 302.011719 390.476562 286.316406 398.542969 260.429688 C 405.183594 239.125 401.714844 227.414062 380.207031 220.773438 C 366.988281 216.691406 352.765625 215.871094 336.664062 213.667969 M 285.238281 442.847656 C 287.816406 432.628906 284.054688 427.269531 273.757812 423.832031 C 253.929688 417.214844 234.566406 412.621094 213.199219 416.707031 C 191.683594 420.820312 183.132812 430.375 187.289062 452.078125 C 195.179688 493.273438 221.734375 522.707031 249.921875 552.285156 C 272.925781 519.039062 280.269531 482.453125 285.238281 442.847656 M 237.800781 270.695312 C 230.835938 274.019531 222 275.679688 217.273438 280.996094 C 205.589844 294.128906 193.84375 307.910156 185.734375 323.332031 C 175.765625 342.292969 169.460938 363.179688 161.074219 384.511719 C 167.171875 384.984375 169.617188 385.269531 172.070312 385.347656 C 208.160156 386.519531 240.914062 374.273438 273.785156 361.3125 C 285.617188 356.648438 286.785156 350.699219 285.039062 339.871094 C 281.371094 317.175781 273.164062 296.792969 256.976562 280.382812 C 252.539062 275.882812 245.609375 273.839844 237.800781 270.695312 M 416.097656 342.703125 C 412.773438 352.496094 416.382812 357.207031 426.214844 360.746094 C 447.613281 368.449219 468.789062 372.625 491.644531 368 C 504.855469 365.324219 513.503906 359.300781 514.128906 346.378906 C 514.5 338.683594 513.78125 330.558594 511.644531 323.179688 C 501.199219 287.09375 477.460938 259.804688 451.355469 232.898438 C 428.136719 265.890625 420.863281 302.78125 416.097656 342.703125 M 337.609375 373.238281 C 328.675781 378.171875 323.226562 398.066406 328.425781 406.777344 C 331.054688 411.175781 353.050781 419.363281 356.457031 416.914062 C 362.648438 412.453125 371.515625 408.761719 373.855469 402.671875 C 376.496094 395.789062 374.640625 386.121094 372.074219 378.566406 C 369.121094 369.871094 347.816406 366.59375 337.609375 373.238281 Z M 337.609375 373.238281 "/>
<path style=" stroke:none;fill-rule:nonzero;fill:rgb(27.058824%,43.529412%,59.607843%);fill-opacity:1;" d="M 1645.0625 394.441406 C 1654.675781 411.328125 1663.832031 427.421875 1674.519531 446.210938 C 1679.871094 427.847656 1684.589844 412.3125 1688.917969 396.671875 C 1697.625 365.238281 1706.199219 333.769531 1714.625 302.261719 C 1716.238281 296.230469 1718.941406 293.261719 1725.746094 293.644531 C 1736.03125 294.222656 1746.375 293.796875 1758.675781 293.796875 C 1738.765625 365.339844 1719.152344 435.808594 1699.757812 505.496094 C 1697.945312 506.074219 1697.5625 506.28125 1697.167969 506.308594 C 1663.855469 508.601562 1663.914062 508.5625 1647.660156 479.757812 C 1635.355469 457.953125 1622.863281 436.25 1609.402344 412.65625 C 1596.050781 436.0625 1583.835938 457.476562 1571.628906 478.890625 C 1570.195312 481.40625 1568.824219 483.960938 1567.414062 486.488281 C 1556.027344 506.890625 1546.96875 511.226562 1524.09375 506.433594 C 1521.644531 505.921875 1518.546875 502.890625 1517.855469 500.4375 C 1498.96875 433.273438 1480.347656 366.035156 1461.730469 298.792969 C 1461.421875 297.675781 1461.691406 296.398438 1461.691406 293.835938 C 1473.703125 293.835938 1485.605469 293.238281 1497.363281 294.28125 C 1500.089844 294.523438 1503.570312 300.007812 1504.59375 303.671875 C 1516.699219 346.992188 1528.386719 390.433594 1540.253906 433.824219 C 1541.089844 436.878906 1542.476562 439.785156 1544.523438 445.167969 C 1549.480469 436.933594 1553.523438 430.492188 1557.292969 423.890625 C 1566.921875 407.023438 1576.664062 390.210938 1585.871094 373.109375 C 1589.445312 366.464844 1594.1875 364.839844 1601.496094 363.820312 C 1620.847656 361.117188 1634.171875 366.671875 1640.269531 386.15625 C 1641.109375 388.84375 1643.132812 391.164062 1645.0625 394.441406 Z M 1645.0625 394.441406 "/>
<path style=" stroke:none;fill-rule:nonzero;fill:rgb(27.058824%,43.529412%,59.607843%);fill-opacity:1;" d="M 973.066406 340.914062 C 944.652344 322.03125 910.792969 323.445312 886.070312 343.890625 C 862.328125 363.519531 854.054688 397.253906 865.921875 426.042969 C 878.199219 455.8125 906.257812 472.628906 939.414062 469.363281 C 946.683594 468.644531 954.117188 466.5625 960.804688 463.601562 C 975.519531 457.082031 986.976562 448.140625 983.53125 428.957031 C 982.179688 421.425781 983.3125 413.449219 983.3125 403.980469 C 972.71875 403.980469 963.347656 403.980469 953.980469 403.980469 C 944.964844 403.980469 935.945312 403.980469 926.015625 403.980469 C 926.015625 390.570312 926.015625 378.375 926.015625 365.167969 C 957.527344 365.167969 989.136719 365.167969 1022.523438 365.167969 C 1022.523438 382.890625 1022.523438 400.519531 1022.523438 418.148438 C 1022.523438 423.113281 1022.789062 428.101562 1022.46875 433.046875 C 1021.78125 443.609375 1024.640625 457.335938 1019.109375 464.035156 C 1007.832031 477.691406 993.609375 491.25 977.699219 498.335938 C 912.191406 527.503906 845.035156 496.4375 825.382812 428.039062 C 813.074219 385.191406 824.210938 346.636719 857.703125 316.617188 C 892.796875 285.164062 933.371094 279.140625 976.394531 297.980469 C 990.34375 304.085938 1002.320312 314.695312 1016.890625 324.371094 C 1005.308594 334.664062 996.179688 342.777344 986.34375 351.519531 C 981.90625 348.011719 977.820312 344.777344 973.066406 340.914062 Z M 973.066406 340.914062 "/>
<path style=" stroke:none;fill-rule:nonzero;fill:rgb(27.058824%,43.529412%,59.607843%);fill-opacity:1;" d="M 3303.417969 468.328125 C 3260.203125 517.144531 3196.375 523.398438 3147.734375 484.261719 C 3104.164062 449.207031 3094.230469 382.601562 3125.957031 336.574219 C 3159.738281 287.558594 3222.246094 274.578125 3269.332031 301.351562 C 3280.609375 307.765625 3290.773438 316.140625 3302.871094 324.613281 C 3291.734375 334.546875 3282.371094 342.894531 3272.339844 351.839844 C 3255.429688 335.28125 3236.375 326.3125 3212.902344 327.65625 C 3182.726562 329.386719 3156.664062 351.167969 3148.730469 382.390625 C 3141.566406 410.605469 3155.28125 444.707031 3179.546875 459 C 3208.046875 475.785156 3242.441406 473.125 3264.59375 452.074219 C 3266.972656 449.8125 3269.003906 445.976562 3269.136719 442.78125 C 3269.660156 430.460938 3269.351562 418.105469 3269.351562 403.972656 C 3259.074219 403.972656 3249.738281 403.972656 3240.402344 403.972656 C 3231.375 403.972656 3222.34375 403.972656 3212.488281 403.972656 C 3212.488281 390.664062 3212.488281 378.472656 3212.488281 365.230469 C 3243.925781 365.230469 3275.464844 365.230469 3308.519531 365.230469 C 3308.519531 396.40625 3308.640625 427.671875 3308.324219 458.9375 C 3308.296875 461.835938 3305.507812 464.707031 3303.417969 468.328125 Z M 3303.417969 468.328125 "/>
<path style=" stroke:none;fill-rule:nonzero;fill:rgb(27.058824%,43.529412%,59.607843%);fill-opacity:1;" d="M 1271.132812 482.742188 C 1222.949219 441.8125 1218.292969 371.992188 1262.015625 323.015625 C 1300 280.464844 1368.058594 273.296875 1417.792969 317.210938 C 1459.792969 354.292969 1464.636719 425.773438 1427.648438 468.664062 C 1386.25 516.664062 1317.960938 523.066406 1271.132812 482.742188 M 1411.273438 413.277344 C 1411.460938 411.636719 1411.617188 409.992188 1411.835938 408.355469 C 1416.839844 371.050781 1393.496094 337.214844 1356.945312 328.796875 C 1323.570312 321.113281 1287.570312 341.5 1275.859375 374.714844 C 1263.734375 409.101562 1280.023438 448.082031 1312.894531 463.351562 C 1353.347656 482.136719 1396.265625 461.132812 1411.273438 413.277344 Z M 1411.273438 413.277344 "/>
<path style=" stroke:none;fill-rule:nonzero;fill:rgb(27.058824%,43.529412%,59.607843%);fill-opacity:1;" d="M 2592.398438 473.144531 C 2554.191406 430.785156 2553.195312 366.582031 2594.289062 321.496094 C 2641.3125 269.90625 2731.128906 279.316406 2767.410156 339.667969 C 2792.164062 380.851562 2789.390625 432.625 2760.582031 467.214844 C 2728.335938 505.929688 2679.582031 519.96875 2633.484375 501.265625 C 2618.699219 495.265625 2606.398438 483.144531 2592.398438 473.144531 M 2698.871094 465.035156 C 2736.90625 449.269531 2754.140625 408.917969 2738.976562 371.121094 C 2725.328125 337.097656 2684.800781 318.765625 2650.847656 331.257812 C 2612.679688 345.304688 2594.523438 384.730469 2608.074219 424.152344 C 2620.195312 459.414062 2659.125 477.582031 2698.871094 465.035156 Z M 2698.871094 465.035156 "/>
<path style=" stroke:none;fill-rule:nonzero;fill:rgb(27.45098%,43.921569%,60%);fill-opacity:1;" d="M 2454.128906 293.78125 C 2474.175781 292.988281 2491.402344 296.550781 2505.105469 310.988281 C 2527.402344 334.480469 2525.035156 370.574219 2499.613281 390.941406 C 2496.765625 393.222656 2493.851562 395.421875 2490.253906 398.21875 C 2515.917969 433.796875 2541.214844 468.863281 2568.386719 506.535156 C 2551.941406 506.535156 2537.832031 506.921875 2523.777344 506.203125 C 2521.019531 506.066406 2517.988281 502.019531 2515.914062 499.171875 C 2495 470.449219 2473.878906 441.863281 2453.695312 412.628906 C 2447.5625 403.75 2440.984375 400.636719 2429.894531 403.851562 C 2429.894531 437.207031 2429.894531 470.960938 2429.894531 505.699219 C 2416.640625 505.699219 2404.484375 505.699219 2391.367188 505.699219 C 2391.367188 435.8125 2391.367188 365.738281 2391.367188 293.78125 C 2411.910156 293.78125 2432.417969 293.78125 2454.128906 293.78125 M 2443.429688 332.902344 C 2439.039062 332.902344 2434.648438 332.902344 2430.273438 332.902344 C 2430.273438 344.066406 2430.273438 353.683594 2430.273438 363.683594 C 2443.078125 363.683594 2455.011719 364.289062 2466.855469 363.492188 C 2476.296875 362.859375 2482.21875 357.03125 2481.40625 347.0625 C 2480.65625 337.929688 2474.835938 333.183594 2465.625 332.988281 C 2459.023438 332.851562 2452.417969 332.925781 2443.429688 332.902344 Z M 2443.429688 332.902344 "/>
<path style=" stroke:none;fill-rule:nonzero;fill:rgb(27.45098%,43.921569%,60%);fill-opacity:1;" d="M 1152.355469 455.027344 C 1142.183594 440.882812 1131.992188 427.8125 1123.011719 413.960938 C 1117.179688 404.964844 1110.808594 399.71875 1098.175781 404.003906 C 1098.175781 437.226562 1098.175781 471.300781 1098.175781 506.015625 C 1084.757812 506.015625 1072.910156 506.015625 1059.972656 506.015625 C 1059.972656 435.972656 1059.972656 365.90625 1059.972656 293.78125 C 1071.082031 293.78125 1082.472656 293.710938 1093.867188 293.800781 C 1109.164062 293.917969 1124.570312 293.09375 1139.734375 294.601562 C 1163.160156 296.929688 1181.667969 313.253906 1187.089844 334.175781 C 1192.910156 356.636719 1184.84375 378.277344 1165.195312 393.023438 C 1163.269531 394.46875 1161.480469 396.09375 1158.882812 398.253906 C 1184.511719 433.828125 1209.789062 468.90625 1236.84375 506.460938 C 1220.308594 506.460938 1206.15625 506.855469 1192.0625 506.113281 C 1189.367188 505.972656 1186.542969 501.625 1184.402344 498.753906 C 1173.769531 484.507812 1163.34375 470.109375 1152.355469 455.027344 M 1119.046875 332.902344 C 1112.1875 332.902344 1105.328125 332.902344 1098.363281 332.902344 C 1098.363281 344.019531 1098.363281 353.402344 1098.363281 362.992188 C 1111.960938 362.992188 1125.238281 364.300781 1137.996094 362.304688 C 1142.652344 361.578125 1148.539062 353.425781 1149.492188 347.90625 C 1150.863281 339.925781 1145.082031 334.019531 1136.292969 333.164062 C 1131.378906 332.6875 1126.386719 332.964844 1119.046875 332.902344 Z M 1119.046875 332.902344 "/>
<path style=" stroke:none;fill-rule:nonzero;fill:rgb(27.058824%,43.529412%,59.607843%);fill-opacity:1;" d="M 1955.214844 395.03125 C 1955.214844 361.113281 1955.214844 328.4375 1955.214844 294.78125 C 1968.519531 294.78125 1981.082031 294.78125 1994.824219 294.78125 C 1994.824219 317.519531 1994.824219 340.109375 1994.824219 363.742188 C 2023.804688 363.742188 2051.640625 363.742188 2080.796875 363.742188 C 2080.796875 341.0625 2080.796875 318.488281 2080.796875 294.863281 C 2094.5625 294.863281 2107.054688 294.863281 2120.355469 294.863281 C 2120.355469 365.113281 2120.355469 435.21875 2120.355469 506.003906 C 2107.550781 506.003906 2095.332031 506.003906 2081.6875 506.003906 C 2081.6875 472.53125 2081.6875 439.246094 2081.6875 404.980469 C 2052.453125 404.980469 2024.617188 404.980469 1995.4375 404.980469 C 1995.4375 438.605469 1995.4375 471.941406 1995.4375 505.964844 C 1981.855469 505.964844 1969.585938 505.964844 1955.214844 505.964844 C 1955.214844 469.535156 1955.214844 432.90625 1955.214844 395.03125 Z M 1955.214844 395.03125 "/>
<path style=" stroke:none;fill-rule:nonzero;fill:rgb(26.666667%,43.137255%,59.607843%);fill-opacity:1;" d="M 2270.367188 501.046875 C 2268.320312 503.691406 2266.351562 506.367188 2264.28125 506.449219 C 2253.621094 506.882812 2242.9375 506.652344 2231.539062 506.652344 C 2231.539062 435.519531 2231.539062 365.394531 2231.539062 295.621094 C 2260.726562 295.621094 2289.730469 293.460938 2318.246094 296.253906 C 2344.394531 298.816406 2362.898438 325.773438 2361.074219 351.789062 C 2359.160156 379.070312 2337.824219 400.859375 2310.726562 402.382812 C 2297.992188 403.097656 2285.183594 402.503906 2270.398438 402.503906 C 2270.398438 435.734375 2270.398438 467.808594 2270.367188 501.046875 M 2295.964844 364.25 C 2300.449219 363.886719 2305.929688 365.003906 2309.179688 362.808594 C 2314 359.558594 2320.558594 353.769531 2320.308594 349.414062 C 2319.996094 343.996094 2314.117188 335.1875 2309.558594 334.433594 C 2296.980469 332.359375 2283.835938 333.714844 2271.058594 333.714844 C 2271.058594 344.425781 2271.058594 353.726562 2271.058594 364.25 C 2279.058594 364.25 2286.375 364.25 2295.964844 364.25 Z M 2295.964844 364.25 "/>
<path style=" stroke:none;fill-rule:nonzero;fill:rgb(27.45098%,43.921569%,60%);fill-opacity:1;" d="M 3407.210938 427.394531 C 3409.820312 408.703125 3403.683594 394.570312 3393.035156 380.679688 C 3373.703125 355.453125 3355.933594 329.023438 3337.570312 303.058594 C 3335.992188 300.828125 3334.824219 298.304688 3332.269531 293.820312 C 3347.914062 293.820312 3361.78125 293.285156 3375.554688 294.195312 C 3379.054688 294.425781 3383.007812 298.695312 3385.46875 302.054688 C 3399.328125 320.9375 3412.796875 340.113281 3427.5625 360.824219 C 3441.558594 341.277344 3454.902344 323.546875 3467.171875 305.101562 C 3472.828125 296.597656 3478.996094 292.617188 3489.410156 293.570312 C 3499.933594 294.53125 3510.617188 293.78125 3523.902344 293.78125 C 3506.394531 318.539062 3491.777344 342.527344 3473.835938 363.703125 C 3453.117188 388.152344 3443.796875 414.285156 3447.332031 446.296875 C 3449.453125 465.476562 3447.722656 485.085938 3447.722656 505.597656 C 3434.621094 505.597656 3422.070312 505.597656 3407.210938 505.597656 C 3407.210938 480.246094 3407.210938 454.433594 3407.210938 427.394531 Z M 3407.210938 427.394531 "/>
<path style=" stroke:none;fill-rule:nonzero;fill:rgb(26.666667%,43.137255%,59.607843%);fill-opacity:1;" d="M 1794.128906 293.804688 C 1838.222656 293.804688 1881.128906 293.804688 1924.652344 293.804688 C 1924.652344 307.386719 1924.652344 319.589844 1924.652344 332.867188 C 1907.925781 332.867188 1891.554688 332.867188 1873.539062 332.867188 C 1873.539062 391.070312 1873.539062 448.242188 1873.539062 506.035156 C 1859.660156 506.035156 1847.421875 506.035156 1833.957031 506.035156 C 1833.957031 449.125 1833.957031 392.242188 1833.957031 333.800781 C 1816.148438 333.800781 1799.457031 333.800781 1782.070312 333.800781 C 1782.070312 320.039062 1782.070312 307.832031 1782.070312 294.582031 C 1785.78125 294.316406 1789.363281 294.058594 1794.128906 293.804688 Z M 1794.128906 293.804688 "/>
<path style=" stroke:none;fill-rule:nonzero;fill:rgb(29.803922%,45.882353%,61.176471%);fill-opacity:1;" d="M 2896.328125 374.03125 C 2886.773438 340.046875 2866.96875 316.222656 2835.261719 302.402344 C 2831.617188 300.8125 2829.144531 296.546875 2826.125 293.519531 C 2830.152344 290.769531 2833.8125 286.691406 2838.257812 285.480469 C 2886.378906 272.339844 2934.074219 289.429688 2964.167969 330.113281 C 2991.800781 367.472656 2993.140625 419.789062 2967.554688 462.207031 C 2944.460938 500.484375 2895.378906 522.84375 2850.179688 514.757812 C 2841.882812 513.273438 2828.65625 509.566406 2827.421875 504.507812 C 2824.75 493.589844 2838.46875 494.199219 2845.4375 490.371094 C 2885.726562 468.25 2905.9375 423.015625 2896.328125 374.03125 M 2967.503906 368.144531 C 2952.125 315.636719 2896.988281 287.398438 2856.074219 297.46875 C 2893.574219 321.710938 2913.183594 355.945312 2912.964844 399.203125 C 2912.746094 442.476562 2892.835938 476.546875 2855.175781 500.539062 C 2922.109375 512.445312 2988.917969 448.136719 2967.503906 368.144531 Z M 2967.503906 368.144531 "/>
<path style=" stroke:none;fill-rule:nonzero;fill:rgb(27.058824%,43.529412%,59.607843%);fill-opacity:1;" d="M 3070.328125 313.253906 C 3070.328125 378.078125 3070.328125 441.691406 3070.328125 505.992188 C 3056.851562 505.992188 3044.625 505.992188 3031.453125 505.992188 C 3031.453125 435.832031 3031.453125 365.726562 3031.453125 294.707031 C 3043.863281 294.707031 3056.414062 294.707031 3070.328125 294.707031 C 3070.328125 300.710938 3070.328125 306.378906 3070.328125 313.253906 Z M 3070.328125 313.253906 "/>
<path style=" stroke:none;fill-rule:nonzero;fill:rgb(96.862745%,97.647059%,98.431373%);fill-opacity:1;" d="M 271.992188 577.660156 C 273.699219 573.445312 276.269531 569.777344 279.25 565.523438 C 311.078125 596.519531 348.777344 592.820312 386.660156 584.859375 C 404.65625 581.078125 422.074219 574.527344 439.816406 569.210938 C 450.785156 587.808594 443.527344 606.257812 422.832031 612.109375 C 393.878906 620.296875 366.25 613.292969 339.257812 603.804688 C 319.863281 596.984375 301.226562 588.003906 281.480469 580.671875 C 280.710938 581.355469 280.832031 581.375 280.761719 580.414062 C 279.40625 579.246094 278.121094 579.039062 276.839844 578.832031 C 275.511719 578.625 274.183594 578.417969 271.992188 577.660156 Z M 271.992188 577.660156 "/>
<path style=" stroke:none;fill-rule:nonzero;fill:rgb(96.862745%,97.647059%,98.431373%);fill-opacity:1;" d="M 153.589844 416 C 157.84375 415.953125 161.753906 416.609375 166.039062 417.328125 C 155.105469 459.09375 176.140625 489.25 200.464844 517.496094 C 213.289062 532.390625 228.6875 545.0625 243.0625 558.871094 C 231.53125 577.621094 212.417969 580.410156 196.574219 564.289062 C 174.722656 542.046875 167.113281 513.226562 161.910156 483.820312 C 158.832031 466.417969 157.886719 448.640625 155.816406 431.050781 C 155.496094 428.335938 154.304688 425.726562 152.566406 422.832031 C 152.160156 420.628906 152.707031 418.664062 153.589844 416 Z M 153.589844 416 "/>
<path style=" stroke:none;fill-rule:nonzero;fill:rgb(96.862745%,97.647059%,98.431373%);fill-opacity:1;" d="M 469.875 551.59375 C 467.742188 548.472656 466.050781 545.375 463.84375 541.328125 C 505.734375 529.269531 521.429688 495.667969 533.597656 459.996094 C 539.925781 441.441406 543.113281 421.8125 547.726562 402.671875 C 571.476562 404.972656 581.636719 419.144531 575.273438 441.664062 C 568.023438 467.3125 551.371094 486.847656 531.9375 503.800781 C 516.429688 517.335938 499.308594 529.019531 482.957031 541.597656 C 479.742188 544.066406 476.785156 546.867188 473.339844 550.519531 C 472.089844 551.550781 471.207031 551.582031 469.875 551.59375 Z M 469.875 551.59375 "/>
<path style=" stroke:none;fill-rule:nonzero;fill:rgb(97.647059%,98.039216%,98.823529%);fill-opacity:1;" d="M 231.089844 231.503906 C 232.96875 234.695312 234.742188 238.722656 236.523438 242.761719 C 179.105469 265.734375 167.773438 316.863281 156.992188 368.3125 C 156.066406 372.730469 155.472656 377.214844 154.746094 381.542969 C 134.40625 383.207031 120.484375 367.761719 124.5625 348.199219 C 129.023438 326.808594 140.476562 308.75 156.308594 294.664062 C 179.078125 274.40625 203.636719 256.167969 228.101562 236.554688 C 228.769531 236.035156 228.609375 236.128906 228.90625 235.777344 C 229.902344 235.136719 230.4375 234.667969 230.820312 234.019531 C 230.875 233.460938 230.929688 232.898438 231.089844 231.503906 Z M 231.089844 231.503906 "/>
<path style=" stroke:none;fill-rule:nonzero;fill:rgb(27.843137%,43.921569%,60%);fill-opacity:1;" d="M 230.277344 234.214844 C 230.4375 234.667969 229.902344 235.136719 228.820312 235.8125 C 228.527344 235.351562 228.960938 234.757812 230.277344 234.214844 Z M 230.277344 234.214844 "/>
<path style=" stroke:none;fill-rule:nonzero;fill:rgb(27.843137%,43.921569%,60%);fill-opacity:1;" d="M 277.375 579.464844 C 278.121094 579.039062 279.40625 579.246094 280.75 580.476562 C 279.839844 581.03125 278.875 580.5625 277.375 579.464844 Z M 277.375 579.464844 "/>
<path style=" stroke:none;fill-rule:nonzero;fill:rgb(99.215686%,99.607843%,99.607843%);fill-opacity:1;" d="M 429.820312 562.203125 C 394.859375 570.210938 360.714844 576.621094 326.167969 566.238281 C 318.859375 564.039062 310.53125 560.671875 305.980469 555.125 C 301.394531 549.535156 297.46875 539.605469 299.238281 533.238281 C 307.140625 504.800781 324.832031 483 350.757812 467.261719 C 382.71875 490.027344 413.238281 514.363281 432.628906 549.699219 C 434.449219 553.019531 442.902344 559.734375 429.820312 562.203125 Z M 429.820312 562.203125 "/>
<path style=" stroke:none;fill-rule:nonzero;fill:rgb(99.215686%,99.607843%,99.607843%);fill-opacity:1;" d="M 441.046875 418.539062 C 472.40625 406.058594 503.511719 397.191406 538.511719 400.355469 C 527.929688 439.105469 515.164062 475.957031 484.972656 503.820312 C 480.019531 508.390625 473.21875 512.25 466.714844 513.464844 C 460.871094 514.5625 452.054688 513.757812 448.359375 510.023438 C 428.308594 489.742188 416.847656 464.933594 415.148438 436.199219 C 414.980469 433.390625 417.367188 429.085938 419.816406 427.726562 C 426.246094 424.160156 433.367188 421.839844 441.046875 418.539062 Z M 441.046875 418.539062 "/>
<path style=" stroke:none;fill-rule:nonzero;fill:rgb(99.215686%,99.607843%,99.607843%);fill-opacity:1;" d="M 337.828125 213.625 C 352.765625 215.871094 366.988281 216.691406 380.207031 220.773438 C 401.714844 227.414062 405.183594 239.125 398.542969 260.429688 C 390.476562 286.316406 371.589844 302.011719 352.085938 317.492188 C 319.445312 301.179688 274.78125 254.507812 264.175781 225.105469 C 287.890625 217.796875 312.003906 214.207031 337.828125 213.625 Z M 337.828125 213.625 "/>
<path style=" stroke:none;fill-rule:nonzero;fill:rgb(99.215686%,99.607843%,99.607843%);fill-opacity:1;" d="M 285.066406 443.914062 C 280.269531 482.453125 272.925781 519.039062 249.921875 552.285156 C 221.734375 522.707031 195.179688 493.273438 187.289062 452.078125 C 183.132812 430.375 191.683594 420.820312 213.199219 416.707031 C 234.566406 412.621094 253.929688 417.214844 273.757812 423.832031 C 284.054688 427.269531 287.816406 432.628906 285.066406 443.914062 Z M 285.066406 443.914062 "/>
<path style=" stroke:none;fill-rule:nonzero;fill:rgb(99.215686%,99.607843%,99.607843%);fill-opacity:1;" d="M 238.8125 270.683594 C 245.609375 273.839844 252.539062 275.882812 256.976562 280.382812 C 273.164062 296.792969 281.371094 317.175781 285.039062 339.871094 C 286.785156 350.699219 285.617188 356.648438 273.785156 361.3125 C 240.914062 374.273438 208.160156 386.519531 172.070312 385.347656 C 169.617188 385.269531 167.171875 384.984375 161.074219 384.511719 C 169.460938 363.179688 175.765625 342.292969 185.734375 323.332031 C 193.84375 307.910156 205.589844 294.128906 217.273438 280.996094 C 222 275.679688 230.835938 274.019531 238.8125 270.683594 Z M 238.8125 270.683594 "/>
<path style=" stroke:none;fill-rule:nonzero;fill:rgb(99.215686%,99.607843%,99.607843%);fill-opacity:1;" d="M 416.226562 341.640625 C 420.863281 302.78125 428.136719 265.890625 451.355469 232.898438 C 477.460938 259.804688 501.199219 287.09375 511.644531 323.179688 C 513.78125 330.558594 514.5 338.683594 514.128906 346.378906 C 513.503906 359.300781 504.855469 365.324219 491.644531 368 C 468.789062 372.625 447.613281 368.449219 426.214844 360.746094 C 416.382812 357.207031 412.773438 352.496094 416.226562 341.640625 Z M 416.226562 341.640625 "/>
<path style=" stroke:none;fill-rule:nonzero;fill:rgb(98.823529%,99.215686%,99.215686%);fill-opacity:1;" d="M 338.4375 372.765625 C 347.816406 366.59375 369.121094 369.871094 372.074219 378.566406 C 374.640625 386.121094 376.496094 395.789062 373.855469 402.671875 C 371.515625 408.761719 362.648438 412.453125 356.457031 416.914062 C 353.050781 419.363281 331.054688 411.175781 328.425781 406.777344 C 323.226562 398.066406 328.675781 378.171875 338.4375 372.765625 Z M 338.4375 372.765625 "/>
<path style=" stroke:none;fill-rule:nonzero;fill:rgb(99.215686%,99.607843%,99.607843%);fill-opacity:1;" d="M 1411.148438 414.300781 C 1396.265625 461.132812 1353.347656 482.136719 1312.894531 463.351562 C 1280.023438 448.082031 1263.734375 409.101562 1275.859375 374.714844 C 1287.570312 341.5 1323.570312 321.113281 1356.945312 328.796875 C 1393.496094 337.214844 1416.839844 371.050781 1411.835938 408.355469 C 1411.617188 409.992188 1411.460938 411.636719 1411.148438 414.300781 Z M 1411.148438 414.300781 "/>
<path style=" stroke:none;fill-rule:nonzero;fill:rgb(99.215686%,99.607843%,99.607843%);fill-opacity:1;" d="M 2697.929688 465.34375 C 2659.125 477.582031 2620.195312 459.414062 2608.074219 424.152344 C 2594.523438 384.730469 2612.679688 345.304688 2650.847656 331.257812 C 2684.800781 318.765625 2725.328125 337.097656 2738.976562 371.121094 C 2754.140625 408.917969 2736.90625 449.269531 2697.929688 465.34375 Z M 2697.929688 465.34375 "/>
<path style=" stroke:none;fill-rule:nonzero;fill:rgb(96.862745%,97.647059%,98.431373%);fill-opacity:1;" d="M 2444.625 332.902344 C 2452.417969 332.925781 2459.023438 332.851562 2465.625 332.988281 C 2474.835938 333.183594 2480.65625 337.929688 2481.40625 347.0625 C 2482.21875 357.03125 2476.296875 362.859375 2466.855469 363.492188 C 2455.011719 364.289062 2443.078125 363.683594 2430.273438 363.683594 C 2430.273438 353.683594 2430.273438 344.066406 2430.273438 332.902344 C 2434.648438 332.902344 2439.039062 332.902344 2444.625 332.902344 Z M 2444.625 332.902344 "/>
<path style=" stroke:none;fill-rule:nonzero;fill:rgb(96.862745%,97.647059%,98.431373%);fill-opacity:1;" d="M 1120.238281 332.902344 C 1126.386719 332.964844 1131.378906 332.6875 1136.292969 333.164062 C 1145.082031 334.019531 1150.863281 339.925781 1149.492188 347.90625 C 1148.539062 353.425781 1142.652344 361.578125 1137.996094 362.304688 C 1125.238281 364.300781 1111.960938 362.992188 1098.363281 362.992188 C 1098.363281 353.402344 1098.363281 344.019531 1098.363281 332.902344 C 1105.328125 332.902344 1112.1875 332.902344 1120.238281 332.902344 Z M 1120.238281 332.902344 "/>
<path style=" stroke:none;fill-rule:nonzero;fill:rgb(96.862745%,97.647059%,98.431373%);fill-opacity:1;" d="M 2294.828125 364.25 C 2286.375 364.25 2279.058594 364.25 2271.058594 364.25 C 2271.058594 353.726562 2271.058594 344.425781 2271.058594 333.714844 C 2283.835938 333.714844 2296.980469 332.359375 2309.558594 334.433594 C 2314.117188 335.1875 2319.996094 343.996094 2320.308594 349.414062 C 2320.558594 353.769531 2314 359.558594 2309.179688 362.808594 C 2305.929688 365.003906 2300.449219 363.886719 2294.828125 364.25 Z M 2294.828125 364.25 "/>
<path style=" stroke:none;fill-rule:nonzero;fill:rgb(98.823529%,99.215686%,99.215686%);fill-opacity:1;" d="M 2967.835938 369.113281 C 2988.917969 448.136719 2922.109375 512.445312 2855.175781 500.539062 C 2892.835938 476.546875 2912.746094 442.476562 2912.964844 399.203125 C 2913.183594 355.945312 2893.574219 321.710938 2856.074219 297.46875 C 2896.988281 287.398438 2952.125 315.636719 2967.835938 369.113281 Z M 2967.835938 369.113281 "/>
</g>
</svg>
